<?xml version="1.0" encoding="utf-8"?>
<!-- Generator: Adobe Illustrator 16.0.0, SVG Export Plug-In . SVG Version: 6.00 Build 0)  -->
<!DOCTYPE svg PUBLIC "-//W3C//DTD SVG 1.1//EN" "http://www.w3.org/Graphics/SVG/1.1/DTD/svg11.dtd">
<svg version="1.1" xmlns="http://www.w3.org/2000/svg" xmlns:xlink="http://www.w3.org/1999/xlink" x="0px" y="0px" width="350px"
	 height="416px" viewBox="0 0 350 416" enable-background="new 0 0 350 416" xml:space="preserve">
<g id="BGcg">
</g>
<g id="turners">
	<g>
		<g>
			
				<path fill-rule="evenodd" clip-rule="evenodd" fill="none" stroke="#FFFFFF" stroke-linecap="round" stroke-linejoin="round" stroke-miterlimit="3" stroke-opacity="0.298" d="
				M8.45,98.65c0.5,0.63,1.07,1.13,1.7,1.5c1.07,0.6,2.32,0.85,3.75,0.75c0.37-0.07,0.75-0.13,1.15-0.2c0.07,0,0.17-0.02,0.3-0.05
				c0.03-0.03,0.12-0.05,0.25-0.05"/>
			<g>
				<rect x="10.6" y="6.55" fill-rule="evenodd" clip-rule="evenodd" fill="#9F5E1C" width="1.95" height="40.2"/>
			</g>
			<g>
				<g>
					<linearGradient id="SVGID_1_" gradientUnits="userSpaceOnUse" x1="11.8501" y1="63.4648" x2="18.2495" y2="63.2234">
						<stop  offset="7.843138e-003" style="stop-color:#474747"/>
						<stop  offset="0.2196" style="stop-color:#6B6767"/>
						<stop  offset="0.4706" style="stop-color:#CDCDCD"/>
						<stop  offset="0.5569" style="stop-color:#DBD7D7"/>
						<stop  offset="0.8275" style="stop-color:#7F7D7D"/>
						<stop  offset="0.898" style="stop-color:#000000"/>
						<stop  offset="1" style="stop-color:#000000"/>
						<stop  offset="1" style="stop-color:#000000"/>
					</linearGradient>
					<path fill-rule="evenodd" clip-rule="evenodd" fill="url(#SVGID_1_)" d="M12.6,97.8l-0.9-68.95h0.05c0.93,0,1.75,0.2,2.45,0.6
						c0.1,0.07,0.2,0.15,0.3,0.25c0.1,0,0.17,0.03,0.2,0.1c0.5,0.43,0.85,0.92,1.05,1.45L19.4,97.8H12.6z"/>
					<linearGradient id="SVGID_2_" gradientUnits="userSpaceOnUse" x1="7.6123" y1="63.6748" x2="10.5873" y2="63.6748">
						<stop  offset="7.843138e-003" style="stop-color:#474747"/>
						<stop  offset="0.6196" style="stop-color:#6B6767"/>
						<stop  offset="1" style="stop-color:#EFEFEF"/>
					</linearGradient>
					<path fill-rule="evenodd" clip-rule="evenodd" fill="url(#SVGID_2_)" d="M9.1,29.55V97.8H7.3l0.2-65.85
						c0.07-0.63,0.27-1.12,0.6-1.45c0.3-0.33,0.5-0.55,0.6-0.65c0.07-0.1,0.13-0.15,0.2-0.15C8.93,29.7,9,29.65,9.1,29.55z"/>
					<linearGradient id="SVGID_3_" gradientUnits="userSpaceOnUse" x1="9.4624" y1="63.3252" x2="12.9374" y2="63.3252">
						<stop  offset="0" style="stop-color:#FFFFFF"/>
						<stop  offset="0.3333" style="stop-color:#DADADA"/>
						<stop  offset="0.3882" style="stop-color:#ABABAB"/>
						<stop  offset="1" style="stop-color:#434343"/>
					</linearGradient>
					<path fill-rule="evenodd" clip-rule="evenodd" fill="url(#SVGID_3_)" d="M9.1,97.8V29.55c0.33-0.23,0.72-0.4,1.15-0.5
						c0.43-0.13,0.92-0.2,1.45-0.2l0.9,68.95H9.1z"/>
				</g>
			</g>
			<g>
				<g>
					<linearGradient id="SVGID_4_" gradientUnits="userSpaceOnUse" x1="6.9502" y1="99.875" x2="20.4252" y2="99.875">
						<stop  offset="0" style="stop-color:#000000"/>
						<stop  offset="0.1412" style="stop-color:#383535"/>
						<stop  offset="0.2667" style="stop-color:#434040"/>
						<stop  offset="0.4784" style="stop-color:#776F6F"/>
						<stop  offset="1" style="stop-color:#000000"/>
					</linearGradient>
					<path fill-rule="evenodd" clip-rule="evenodd" fill="url(#SVGID_4_)" d="M20.4,105.7c-0.17-1.03-0.65-1.97-1.45-2.8
						c-0.13-0.1-0.27-0.2-0.4-0.3c-0.1-0.07-0.18-0.13-0.25-0.2c0-0.03-0.02-0.05-0.05-0.05c-1.27-0.93-2.78-1.4-4.55-1.4
						c-0.77,0-1.48,0.1-2.15,0.3c-0.8,0.2-1.5,0.53-2.1,1c-0.17,0.07-0.33,0.18-0.5,0.35c-0.03,0.03-0.08,0.08-0.15,0.15
						c-0.6,0.5-1.05,1.05-1.35,1.65c-0.29,0.55-0.46,1.12-0.5,1.7l0.35-8.15c0-0.03,0-0.08,0-0.15c0.2-1,0.75-1.87,1.65-2.6
						c1.17-1.03,2.62-1.55,4.35-1.55c1.7,0,3.13,0.52,4.3,1.55c0.9,0.73,1.5,1.6,1.8,2.6c0,0.07,0,0.12,0,0.15l0.05,0.1L20.4,105.7z
						"/>
					<linearGradient id="SVGID_5_" gradientUnits="userSpaceOnUse" x1="11.6123" y1="105.4463" x2="16.1873" y2="105.4463">
						<stop  offset="0" style="stop-color:#403E3E"/>
						<stop  offset="0.4706" style="stop-color:#8A8383"/>
						<stop  offset="1" style="stop-color:#353434"/>
					</linearGradient>
					<path fill-rule="evenodd" clip-rule="evenodd" fill="url(#SVGID_5_)" d="M18.95,102.9c-1.1,5.23-2.02,7.55-2.75,6.95
						c-0.07-0.07-0.13-0.13-0.2-0.2c-0.03-0.03-0.07-0.07-0.1-0.1c-0.1-0.03-0.2-0.07-0.3-0.1c-0.43-0.27-0.97-0.4-1.6-0.4
						c-0.37,0-0.7,0.07-1,0.2c-0.33,0.1-0.65,0.23-0.95,0.4c-2.4-0.57-3.27-3.03-2.6-7.4c0.6-0.47,1.3-0.8,2.1-1
						c0.67-0.2,1.38-0.3,2.15-0.3c1.77,0,3.28,0.47,4.55,1.4c0.03,0,0.05,0.02,0.05,0.05c0.07,0.07,0.15,0.13,0.25,0.2
						C18.68,102.7,18.82,102.8,18.95,102.9z"/>
					<linearGradient id="SVGID_6_" gradientUnits="userSpaceOnUse" x1="8.145" y1="109.9897" x2="10.4444" y2="107.7141">
						<stop  offset="0" style="stop-color:#171616"/>
						<stop  offset="0.4902" style="stop-color:#3A3939"/>
						<stop  offset="1" style="stop-color:#403E3E"/>
					</linearGradient>
					<path fill-rule="evenodd" clip-rule="evenodd" fill="url(#SVGID_6_)" d="M12.05,109.65c-0.23,0.27-0.42,0.52-0.55,0.75
						c-0.2,0.33-0.3,0.67-0.3,1c0,0.2,0,0.38,0,0.55c0.1,0.4,0.3,0.75,0.6,1.05l-4.05-3.7c-0.53-0.8-0.8-1.7-0.8-2.7
						c0-0.07,0-0.15,0-0.25v-0.25c0.04-0.58,0.21-1.15,0.5-1.7c0.3-0.6,0.75-1.15,1.35-1.65c0.07-0.07,0.12-0.12,0.15-0.15
						c0.17-0.17,0.33-0.28,0.5-0.35C8.78,106.62,9.65,109.08,12.05,109.65z"/>
					<linearGradient id="SVGID_7_" gradientUnits="userSpaceOnUse" x1="12.6382" y1="109.0884" x2="15.4858" y2="114.0148">
						<stop  offset="0" style="stop-color:#646161"/>
						<stop  offset="1" style="stop-color:#403E3E"/>
					</linearGradient>
					<path fill-rule="evenodd" clip-rule="evenodd" fill="url(#SVGID_7_)" d="M16.2,109.85c0.27,0.3,0.45,0.62,0.55,0.95
						c0.07,0.2,0.1,0.42,0.1,0.65c0,0.07,0,0.15,0,0.25c-0.03,0.33-0.15,0.65-0.35,0.95c-0.13,0.17-0.3,0.33-0.5,0.5
						c-0.53,0.5-1.2,0.75-2,0.75c-0.13,0-0.28,0-0.45,0c-0.57-0.13-1.07-0.38-1.5-0.75c-0.1-0.07-0.18-0.12-0.25-0.15
						c-0.3-0.3-0.5-0.65-0.6-1.05c0-0.17,0-0.35,0-0.55c0-0.33,0.1-0.67,0.3-1c0.13-0.23,0.32-0.48,0.55-0.75
						c0.3-0.17,0.62-0.3,0.95-0.4c0.3-0.13,0.63-0.2,1-0.2c0.63,0,1.17,0.13,1.6,0.4c0.1,0.03,0.2,0.07,0.3,0.1
						c0.03,0.03,0.07,0.07,0.1,0.1C16.07,109.72,16.13,109.78,16.2,109.85z"/>
					<linearGradient id="SVGID_8_" gradientUnits="userSpaceOnUse" x1="16.6743" y1="107.167" x2="19.2242" y2="108.6422">
						<stop  offset="0" style="stop-color:#353434"/>
						<stop  offset="1" style="stop-color:#1E1D1D"/>
					</linearGradient>
					<path fill-rule="evenodd" clip-rule="evenodd" fill="url(#SVGID_8_)" d="M16.5,112.65c0.2-0.3,0.32-0.62,0.35-0.95
						c0-0.1,0-0.18,0-0.25c0-0.23-0.03-0.45-0.1-0.65c-0.1-0.33-0.28-0.65-0.55-0.95c0.73,0.6,1.65-1.72,2.75-6.95
						c0.8,0.83,1.28,1.77,1.45,2.8v0.1c0.03,0.27,0.05,0.53,0.05,0.8c0,0.9-0.2,1.73-0.6,2.5L16.5,112.65z"/>
				</g>
			</g>
			<g>
				<g>
					<linearGradient id="SVGID_9_" gradientUnits="userSpaceOnUse" x1="11.1499" y1="113.2373" x2="16.7499" y2="113.2373">
						<stop  offset="0" style="stop-color:#202020"/>
						<stop  offset="0.1882" style="stop-color:#202020"/>
						<stop  offset="0.3255" style="stop-color:#383737"/>
						<stop  offset="0.4863" style="stop-color:#8E8E8E"/>
						<stop  offset="0.698" style="stop-color:#484444"/>
						<stop  offset="1" style="stop-color:#403E3E"/>
					</linearGradient>
					<path fill-rule="evenodd" clip-rule="evenodd" fill="url(#SVGID_9_)" d="M16.75,117.9c-0.1-0.4-0.35-0.78-0.75-1.15
						c-0.53-0.4-1.2-0.6-2-0.6c-0.77,0-1.42,0.2-1.95,0.6c-0.56,0.56-0.84,1.08-0.85,1.58v-7.78c0-0.1,0-0.22,0-0.35
						c0.1-0.5,0.38-0.98,0.85-1.45c0.53-0.4,1.18-0.6,1.95-0.6c0.8,0,1.47,0.2,2,0.6c0.4,0.37,0.65,0.75,0.75,1.15V117.9z"/>
					<linearGradient id="SVGID_10_" gradientUnits="userSpaceOnUse" x1="13.375" y1="116.1187" x2="14.6581" y2="120.8732">
						<stop  offset="0" style="stop-color:#3C3C3C"/>
						<stop  offset="1" style="stop-color:#101010"/>
					</linearGradient>
					<path fill-rule="evenodd" clip-rule="evenodd" fill="url(#SVGID_10_)" d="M16.75,117.9c0.07,0.17,0.1,0.37,0.1,0.6
						c0,0.7-0.28,1.28-0.85,1.75c-0.53,0.47-1.2,0.7-2,0.7c-0.77,0-1.42-0.23-1.95-0.7c-0.57-0.47-0.85-1.05-0.85-1.75v-0.17
						c0.01-0.49,0.29-1.02,0.85-1.58c0.53-0.4,1.18-0.6,1.95-0.6c0.8,0,1.47,0.2,2,0.6C16.4,117.12,16.65,117.5,16.75,117.9z"/>
				</g>
			</g>
			<g>
				<path fill-rule="evenodd" clip-rule="evenodd" fill="none" d="M7.25,105c0.33-0.77,0.8-1.48,1.4-2.15
					c1.4-1.43,3.08-2.15,5.05-2.15c1.97,0,3.63,0.72,5,2.15c0.7,0.67,1.22,1.38,1.55,2.15"/>
			</g>
			<g>
				<path fill-rule="evenodd" clip-rule="evenodd" fill="none" d="M11.2,117.9c0.17-0.37,0.38-0.67,0.65-0.9
					c0.6-0.63,1.32-0.95,2.15-0.95c0.87,0,1.6,0.32,2.2,0.95c0.3,0.23,0.5,0.53,0.6,0.9"/>
			</g>
			<g>
				
					<radialGradient id="SVGID_11_" cx="13.7998" cy="100.8999" r="1.875" gradientTransform="matrix(1 0 0 0.3533 0 65.2486)" gradientUnits="userSpaceOnUse">
					<stop  offset="0" style="stop-color:#FFFFFF"/>
					<stop  offset="0.1922" style="stop-color:#FFFFFF"/>
					<stop  offset="0.2824" style="stop-color:#FFFFFF;stop-opacity:0.7216"/>
					<stop  offset="0.4157" style="stop-color:#FFFFFF;stop-opacity:0.6"/>
					<stop  offset="0.5882" style="stop-color:#FEFEFE;stop-opacity:0.3333"/>
					<stop  offset="0.8157" style="stop-color:#FCFCFC;stop-opacity:0.0863"/>
					<stop  offset="1" style="stop-color:#F9F9F9;stop-opacity:0"/>
				</radialGradient>
				<path fill-rule="evenodd" clip-rule="evenodd" fill="url(#SVGID_11_)" d="M15.6,100.9c0,0.2-0.17,0.35-0.5,0.45
					c-0.4,0.13-0.83,0.2-1.3,0.2c-0.5,0-0.93-0.07-1.3-0.2c-0.33-0.1-0.5-0.25-0.5-0.45c0-0.2,0.17-0.35,0.5-0.45
					c0.37-0.17,0.8-0.25,1.3-0.25c0.47,0,0.9,0.08,1.3,0.25C15.43,100.55,15.6,100.7,15.6,100.9z"/>
			</g>
			<g>
				
					<radialGradient id="SVGID_12_" cx="13.3501" cy="93.7002" r="2.8" gradientTransform="matrix(1 0 0 0.3571 0 60.2358)" gradientUnits="userSpaceOnUse">
					<stop  offset="0" style="stop-color:#FFFFFF"/>
					<stop  offset="0.1922" style="stop-color:#FFFFFF"/>
					<stop  offset="0.2824" style="stop-color:#FFFFFF;stop-opacity:0.7216"/>
					<stop  offset="0.4157" style="stop-color:#FFFFFF;stop-opacity:0.6"/>
					<stop  offset="0.5882" style="stop-color:#FEFEFE;stop-opacity:0.3333"/>
					<stop  offset="0.8157" style="stop-color:#FCFCFC;stop-opacity:0.0863"/>
					<stop  offset="1" style="stop-color:#F9F9F9;stop-opacity:0"/>
				</radialGradient>
				<path fill-rule="evenodd" clip-rule="evenodd" fill="url(#SVGID_12_)" d="M15.3,93c0.53,0.2,0.8,0.43,0.8,0.7
					c0,0.27-0.27,0.48-0.8,0.65c-0.53,0.2-1.18,0.3-1.95,0.3s-1.42-0.1-1.95-0.3c-0.53-0.17-0.8-0.38-0.8-0.65
					c0-0.27,0.27-0.5,0.8-0.7s1.18-0.3,1.95-0.3S14.77,92.8,15.3,93z"/>
			</g>
			<g>
				
					<radialGradient id="SVGID_13_" cx="14" cy="108.1499" r="1.4875" gradientTransform="matrix(1 0 0 0.3529 0 69.9794)" gradientUnits="userSpaceOnUse">
					<stop  offset="0" style="stop-color:#FFFFFF"/>
					<stop  offset="0.1922" style="stop-color:#FFFFFF"/>
					<stop  offset="0.2824" style="stop-color:#FFFFFF;stop-opacity:0.7216"/>
					<stop  offset="0.4157" style="stop-color:#FFFFFF;stop-opacity:0.6"/>
					<stop  offset="0.5882" style="stop-color:#FEFEFE;stop-opacity:0.3333"/>
					<stop  offset="0.8157" style="stop-color:#FCFCFC;stop-opacity:0.0863"/>
					<stop  offset="1" style="stop-color:#F9F9F9;stop-opacity:0"/>
				</radialGradient>
				<path fill-rule="evenodd" clip-rule="evenodd" fill="url(#SVGID_13_)" d="M15.45,108.15c0,0.13-0.13,0.23-0.4,0.3
					c-0.3,0.13-0.65,0.2-1.05,0.2s-0.73-0.07-1-0.2c-0.3-0.07-0.45-0.17-0.45-0.3c0-0.17,0.15-0.28,0.45-0.35
					c0.27-0.13,0.6-0.2,1-0.2s0.75,0.07,1.05,0.2C15.32,107.87,15.45,107.98,15.45,108.15z"/>
			</g>
			<g>
				
					<radialGradient id="SVGID_14_" cx="14.1499" cy="116.1499" r="0.7875" gradientTransform="matrix(1 0 0 0.381 0 71.9023)" gradientUnits="userSpaceOnUse">
					<stop  offset="0" style="stop-color:#FFFFFF"/>
					<stop  offset="0.1922" style="stop-color:#FFFFFF"/>
					<stop  offset="0.2824" style="stop-color:#FFFFFF;stop-opacity:0.7216"/>
					<stop  offset="0.4157" style="stop-color:#FFFFFF;stop-opacity:0.6"/>
					<stop  offset="0.5882" style="stop-color:#FEFEFE;stop-opacity:0.3333"/>
					<stop  offset="0.8157" style="stop-color:#FCFCFC;stop-opacity:0.0863"/>
					<stop  offset="1" style="stop-color:#F9F9F9;stop-opacity:0"/>
				</radialGradient>
				<path fill-rule="evenodd" clip-rule="evenodd" fill="url(#SVGID_14_)" d="M14.85,116.15c0,0.03-0.07,0.1-0.2,0.2
					c-0.13,0.03-0.3,0.05-0.5,0.05c-0.23,0-0.43-0.02-0.6-0.05c-0.1-0.1-0.15-0.17-0.15-0.2c0-0.1,0.05-0.18,0.15-0.25
					c0.17-0.03,0.37-0.05,0.6-0.05c0.2,0,0.37,0.02,0.5,0.05C14.78,115.97,14.85,116.05,14.85,116.15z"/>
			</g>
		</g>
		<g>
			<g>
				<path fill-rule="evenodd" clip-rule="evenodd" fill-opacity="0.0863" d="M313.1,219.2c15.57,7.13,18.52,19.45,8.85,36.95
					c-3.63,12.87-1.45,26.52,6.55,40.95c8.23,14.9,14.62,39.78,19.15,74.65c2.33,18.1-3.28,30.45-16.85,37.05
					c-13.23,6.63-34.22,7.62-62.95,2.95c-0.57-0.1-0.98-0.3-1.25-0.6c-0.37-0.33-0.55-0.7-0.55-1.1c0.07-0.4,0.28-0.75,0.65-1.05
					c23.13-18.5,33.15-30.9,30.05-37.2c-3.73-6.7-10-16.12-18.8-28.25c-0.3-0.4-0.35-0.83-0.15-1.3c0.17-0.43,0.53-0.75,1.1-0.95
					c0.53-0.2,1.1-0.23,1.7-0.1c0.63,0.13,1.08,0.4,1.35,0.8c8.97,12.27,15.32,21.8,19.05,28.6c4.13,6.9-5.3,19.73-28.3,38.5
					c25.13,3.77,43.63,2.77,55.5-3c12.07-6.17,17.03-17.52,14.9-34.05c-4.47-34.4-10.75-58.97-18.85-73.7
					c-8.4-15.17-10.63-29.5-6.7-43c0-0.13,0.03-0.23,0.1-0.3c8.7-15.6,6.37-26.6-7-33c-14.27-6.57-40.18-8.35-77.75-5.35
					c-78,6.13-118.98,6.65-122.95,1.55v0.05c-3.43-3.8-9.37-4.78-17.8-2.95c-11.23,2.23-18.57,0.22-22-6.05
					c-2.67-4.27-8.52-6.5-17.55-6.7c-11.67-0.3-18.05-3.42-19.15-9.35c-1.1-4.97-2.63-9.1-4.6-12.4
					c-2.13-3.43-6.73-23.72-13.8-60.85c-0.13-0.5-0.02-0.92,0.35-1.25c0.4-0.37,0.93-0.58,1.6-0.65c0.57-0.07,1.12,0.03,1.65,0.3
					c0.47,0.3,0.75,0.67,0.85,1.1c7,36.63,11.5,56.65,13.5,60.05c2.1,3.5,3.77,7.88,5,13.15c1.03,4.17,5.95,6.37,14.75,6.6
					c11.3,0.23,18.5,3.15,21.6,8.75c2.7,4.4,8.2,5.75,16.5,4.05c10.97-2.3,18.63-0.83,23,4.4c3.77,3.87,43.28,2.83,118.55-3.1
					C271.4,210.3,298.3,212.23,313.1,219.2z"/>
			</g>
			<g>
				<path fill-rule="evenodd" clip-rule="evenodd" fill="#B1B5B0" d="M314.7,250.6c0.03-0.1,0.07-0.15,0.1-0.15
					c7.07-15.77,3.93-26.78-9.4-33.05c-14.27-6.4-39.4-7.88-75.4-4.45c-75.53,7.13-115.33,8.08-119.4,2.85v0.05
					c-3.47-3.6-9.27-4.53-17.4-2.8c-11.57,2.33-19.12,0.25-22.65-6.25c-2.57-3.8-8.92-4.9-19.05-3.3
					c-13.73,2.2-22.77-2.02-27.1-12.65c-3.87-9.4-7.47-21.02-10.8-34.85c-3.4-13.97-4.18-26.62-2.35-37.95
					c0.1-0.57,0.45-1.02,1.05-1.35c0.6-0.37,1.3-0.52,2.1-0.45c0.77,0.07,1.4,0.32,1.9,0.75c0.47,0.43,0.67,0.95,0.6,1.55
					c-1.77,10.97-1,23.23,2.3,36.8h0.05c3.3,13.6,6.83,25.05,10.6,34.35c3.27,8.07,10.08,11.33,20.45,9.8
					c13.8-2.2,22.3-0.3,25.5,5.7c2.6,4.2,7.88,5.48,15.85,3.85H91.6c11.23-2.37,19.15-0.85,23.75,4.55
					c3.83,3.67,41.8,2.08,113.9-4.75c37.77-3.6,64.17-1.92,79.2,5.05c15.9,7.07,19.85,19.6,11.85,37.6
					c-4.27,13.97-3.98,28.25,0.85,42.85c0.87,2.63,3.23,8.72,7.1,18.25c3.93,9.6,8.68,27.73,14.25,54.4
					c2.87,13.9,0.72,24.35-6.45,31.35c-7.17,7.17-19.37,10.8-36.6,10.9c-16.17,0.6-26.1-0.57-29.8-3.5
					c-2.7-1.83-3.22-4.22-1.55-7.15c1.13-2.23,3.92-4.87,8.35-7.9h-0.05c14.5-10.2,17.93-18.98,10.3-26.35
					c-4.8-4.5-8.18-8.92-10.15-13.25c-2.13-4.73-2.73-9.6-1.8-14.6c0.07-0.57,0.43-1.02,1.1-1.35c0.57-0.37,1.27-0.52,2.1-0.45
					c0.77,0.07,1.38,0.33,1.85,0.8s0.67,0.98,0.6,1.55c-0.83,4.33-0.32,8.6,1.55,12.8c1.83,3.9,4.93,7.88,9.3,11.95v-0.05
					c10.13,9.03,6.52,19.67-10.85,31.9c-3.67,2.53-6.02,4.7-7.05,6.5c-0.6,1.1-0.5,2,0.3,2.7c3.23,2.03,11.73,2.78,25.5,2.25
					c0.03,0,0.08,0,0.15,0c15.03-0.07,25.72-3.13,32.05-9.2c6.27-6.33,8.12-15.77,5.55-28.3c-5.57-26.4-10.27-44.37-14.1-53.9
					c-3.97-9.57-6.37-15.7-7.2-18.4C310.57,280.07,310.27,265.17,314.7,250.6z"/>
			</g>
			<g>
				<g>
					
						<radialGradient id="SVGID_15_" cx="306.7998" cy="222" r="21" gradientTransform="matrix(1 0 0 0.7244 0 61.1821)" gradientUnits="userSpaceOnUse">
						<stop  offset="0" style="stop-color:#FFFFFF"/>
						<stop  offset="1" style="stop-color:#FFFFFF;stop-opacity:0"/>
					</radialGradient>
					<path fill-rule="evenodd" clip-rule="evenodd" fill="url(#SVGID_15_)" d="M319.7,234.25l-0.15-0.85
						c-1.53-11.7-10.53-19-27-21.9l-1.1-0.25l0.6-1.6l1.05,0.2c17.53,3.13,27.12,10.93,28.75,23.4l0.15,0.85L319.7,234.25z"/>
					
						<radialGradient id="SVGID_16_" cx="328.9004" cy="335.7998" r="62.4125" gradientTransform="matrix(1 0 0 0.7246 0 92.4744)" gradientUnits="userSpaceOnUse">
						<stop  offset="0" style="stop-color:#FFFFFF"/>
						<stop  offset="1" style="stop-color:#FFFFFF;stop-opacity:0"/>
					</radialGradient>
					<path fill-rule="evenodd" clip-rule="evenodd" fill="url(#SVGID_16_)" d="M315.3,291.7l-0.35-0.8l2.15-0.45l0.4,0.75
						c12.4,29.03,20.77,58.63,25.1,88.8l0.1,0.8l-2.3,0.15l-0.1-0.8C336,350.12,327.67,320.63,315.3,291.7z"/>
					
						<radialGradient id="SVGID_17_" cx="308.3496" cy="399.4502" r="30.2875" gradientTransform="matrix(1 0 0 0.7247 0 109.9601)" gradientUnits="userSpaceOnUse">
						<stop  offset="0" style="stop-color:#FFFFFF"/>
						<stop  offset="1" style="stop-color:#FFFFFF;stop-opacity:0"/>
					</radialGradient>
					<path fill-rule="evenodd" clip-rule="evenodd" fill="url(#SVGID_17_)" d="M336.75,392.15l2.1,0.6l-0.4,0.8
						c-6.3,12.27-26.07,16.57-59.3,12.9L278,406.3l0.35-1.65l1.1,0.1c31.73,3.53,50.7-0.4,56.9-11.8L336.75,392.15z"/>
					
						<radialGradient id="SVGID_18_" cx="22.4502" cy="161.2002" r="50.1" gradientTransform="matrix(1 0 0 0.7243 0 44.4427)" gradientUnits="userSpaceOnUse">
						<stop  offset="0" style="stop-color:#FFFFFF"/>
						<stop  offset="1" style="stop-color:#FFFFFF;stop-opacity:0"/>
					</radialGradient>
					<path fill-rule="evenodd" clip-rule="evenodd" fill="url(#SVGID_18_)" d="M12.25,125.55v-0.85h2.25v0.85
						c-0.27,23.97,5.77,47.63,18.1,71l0.4,0.8l-2.1,0.55l-0.4-0.8C18.07,173.6,11.98,149.75,12.25,125.55z"/>
					
						<radialGradient id="SVGID_19_" cx="190.6758" cy="211.8501" r="67.8752" gradientTransform="matrix(1 0 0 0.7246 0 58.3446)" gradientUnits="userSpaceOnUse">
						<stop  offset="0" style="stop-color:#FFFFFF"/>
						<stop  offset="1" style="stop-color:#FFFFFF;stop-opacity:0"/>
					</radialGradient>
					<path fill-rule="evenodd" clip-rule="evenodd" fill="url(#SVGID_19_)" d="M258.15,207.3l1.15-0.2l0.35,1.65l-1.1,0.15
						c-57.73,6.87-102.97,9.85-135.7,8.95l-1.15-0.05l0.15-1.65l1.15,0.05C155.63,217.1,200.68,214.13,258.15,207.3z"/>
					
						<radialGradient id="SVGID_20_" cx="283.8496" cy="353.4502" r="16.825" gradientTransform="matrix(1 0 0 0.7244 0 97.422)" gradientUnits="userSpaceOnUse">
						<stop  offset="0" style="stop-color:#FFFFFF"/>
						<stop  offset="1" style="stop-color:#FFFFFF;stop-opacity:0"/>
					</radialGradient>
					<path fill-rule="evenodd" clip-rule="evenodd" fill="url(#SVGID_20_)" d="M275.55,342.45l-0.05-0.85l2.3-0.15l0.05,0.8
						c1.3,7.23,5.93,14.47,13.9,21.7l0.65,0.6l-1.75,1.1l-0.7-0.65C281.65,357.5,276.85,349.98,275.55,342.45z"/>
					
						<radialGradient id="SVGID_21_" cx="83.6748" cy="207.8999" r="13.1544" gradientTransform="matrix(1 0 0 0.7249 0 57.2021)" gradientUnits="userSpaceOnUse">
						<stop  offset="0" style="stop-color:#FFFFFF"/>
						<stop  offset="1" style="stop-color:#FFFFFF;stop-opacity:0"/>
					</radialGradient>
					<path fill-rule="evenodd" clip-rule="evenodd" fill="url(#SVGID_21_)" d="M72.2,203.2l0.35,0.85c3.43,7.1,11.08,9.3,22.95,6.6
						l1.1-0.25l0.7,1.6l-1.05,0.25c-13.43,3-22.07,0.45-25.9-7.65l-0.3-0.85L72.2,203.2z"/>
					
						<radialGradient id="SVGID_22_" cx="281.75" cy="391.25" r="15.0125" gradientTransform="matrix(1 0 0 0.7244 0 107.8299)" gradientUnits="userSpaceOnUse">
						<stop  offset="0" style="stop-color:#FFFFFF"/>
						<stop  offset="1" style="stop-color:#FFFFFF;stop-opacity:0"/>
					</radialGradient>
					<path fill-rule="evenodd" clip-rule="evenodd" fill="url(#SVGID_22_)" d="M292.45,382.65l-0.85,0.6
						c-7.63,5.13-12.95,9.13-15.95,12c-1.4,1.33-2.25,2.38-2.55,3.15c-0.17,0.33-0.17,0.57,0,0.7l1.1,0.35l-0.95,1.55l-1-0.35
						c-1.47-0.43-1.93-1.33-1.4-2.7c0.37-0.93,1.37-2.18,3-3.75c3-2.87,8.42-6.93,16.25-12.2l0.8-0.55L292.45,382.65z"/>
				</g>
			</g>
		</g>
	</g>
</g>
</svg>
