<?xml version="1.0" encoding="utf-8"?>
<!-- Generator: Adobe Illustrator 16.0.0, SVG Export Plug-In . SVG Version: 6.00 Build 0)  -->
<!DOCTYPE svg PUBLIC "-//W3C//DTD SVG 1.1//EN" "http://www.w3.org/Graphics/SVG/1.1/DTD/svg11.dtd">
<svg version="1.1" xmlns="http://www.w3.org/2000/svg" xmlns:xlink="http://www.w3.org/1999/xlink" x="0px" y="0px" width="267px"
	 height="161px" viewBox="0 0 267 161" enable-background="new 0 0 267 161" xml:space="preserve">
<g id="BGcg">
</g>
<g id="turners">
	<g>
		<g>
			<path fill-rule="evenodd" clip-rule="evenodd" fill-opacity="0.0863" d="M87,12.75c-0.27,0.4-0.58,0.62-0.95,0.65
				c-11.1,0.47-26.8,0.33-47.1-0.4c-0.37-0.03-0.67-0.25-0.9-0.65c-0.13-0.23-0.23-0.48-0.3-0.75h49.6
				C87.28,12.03,87.17,12.42,87,12.75z M70.05,16.8c0.53-0.4,1.2-0.6,2-0.6c43.53,0.77,71.57,0.92,84.1,0.45
				c11.23-0.4,18.33-1.37,21.3-2.9c0.33-0.17,0.6-0.33,0.8-0.5l0.05-0.05c0.23-0.1,0.47-0.15,0.7-0.15L211.15,13
				c0.57,1.47,1.07,2.68,1.5,3.65c-0.43,0.4-0.93,0.6-1.5,0.6L179,17.3c-0.4,0-0.75-0.08-1.05-0.25c-1.27,0.97-1.9,1.52-1.9,1.65
				c0.03,0.57-0.2,1.07-0.7,1.5c-0.57,0.4-1.23,0.62-2,0.65c-23.93,0.47-57.75,0.33-101.45-0.4c-0.77-0.03-1.42-0.25-1.95-0.65
				c-0.53-0.43-0.8-0.95-0.8-1.55C69.15,17.68,69.45,17.2,70.05,16.8z M261.95,155.55c-0.27,0.53-0.67,0.9-1.2,1.1
				c-8.97,3.5-23.6,3.97-43.9,1.4c-17.5-0.97-28.55-2.4-33.15-4.3c-1.67-0.7-2.73-1.47-3.2-2.3c-0.97-1.3-0.88-2.67,0.25-4.1
				c1-1.4,3.82-2.87,8.45-4.4c8.03-2.73,13.97-4.93,17.8-6.6c1.63-0.73,2.87-1.35,3.7-1.85c-0.53-1.43-0.67-2.82-0.4-4.15
				c0-0.03,0.02-0.07,0.05-0.1c-0.17-0.4-1.08-1.1-2.75-2.1c-3.03-1.8-6.87-6.83-11.5-15.1c-4.7-8.1-6.33-22.18-4.9-42.25
				c0.03-0.6,0.28-1.08,0.75-1.45c0.43-0.37,0.93-0.55,1.5-0.55c0.57,0.07,1.05,0.33,1.45,0.8c0.37,0.4,0.53,0.9,0.5,1.5
				c-1.33,18.9,0.12,32.2,4.35,39.9c4.1,7.33,7.45,11.85,10.05,13.55c3.9,2.37,5.45,4.6,4.65,6.7c-0.1,0.73,0.07,1.55,0.5,2.45
				c1.13,1.23,0.58,2.62-1.65,4.15c-0.93,0.67-2.45,1.47-4.55,2.4c-0.93,0.4-1.98,0.83-3.15,1.3c5.8-0.23,12.08,0.12,18.85,1.05
				c0.57,0.07,1.03,0.33,1.4,0.8c0.33,0.47,0.48,1,0.45,1.6c-0.1,0.57-0.38,1.03-0.85,1.4c-0.47,0.33-0.98,0.47-1.55,0.4
				c-8.3-1.13-15.82-1.38-22.55-0.75c-0.6,0.07-1.13-0.08-1.6-0.45c-0.43-0.4-0.68-0.88-0.75-1.45c0-0.07,0-0.12,0-0.15
				c-2.5,0.9-5.32,1.9-8.45,3c-2.87,0.9-4.83,1.73-5.9,2.5c0.17,0.1,0.38,0.2,0.65,0.3c4.4,1.77,15,3.12,31.8,4.05
				c0.07,0,0.12,0.02,0.15,0.05c19.47,2.4,33.45,2.02,41.95-1.15c0.53-0.23,1.08-0.22,1.65,0.05c0.53,0.2,0.9,0.57,1.1,1.1
				C262.15,154.43,262.15,154.98,261.95,155.55z M234,90.2c0.27,0.13,0.52,0.33,0.75,0.6c16.23,20.63,22.43,36.5,18.6,47.6
				c-0.2,0.57-0.57,0.98-1.1,1.25s-1.07,0.32-1.6,0.15c-0.57-0.2-0.97-0.57-1.2-1.1c-0.3-0.53-0.35-1.07-0.15-1.6
				c3.03-9.93-2.72-24.23-17.25-42.9H221.2c-0.6,0-1.1-0.18-1.5-0.55c-0.4-0.43-0.6-0.95-0.6-1.55c0-0.6,0.2-1.08,0.6-1.45
				c0.4-0.43,0.9-0.65,1.5-0.65h11.85C233.35,90,233.67,90.07,234,90.2z"/>
		</g>
		<g>
			<path fill-rule="evenodd" clip-rule="evenodd" fill="#B1B5B0" d="M204.35,85.3c-3.63-8.77-7.1-14.13-10.4-16.1
				c-0.67-0.43-1.12-1-1.35-1.7c-0.2-0.77-0.1-1.48,0.3-2.15c0.37-0.7,0.93-1.17,1.7-1.4c0.73-0.23,1.45-0.13,2.15,0.3
				c4.23,2.17,8.52,8.47,12.85,18.9c4.1,9.6,7.42,19.72,9.95,30.35c3.17,12.07-5.27,21.12-25.3,27.15c-2.7,0.8-4.67,1.55-5.9,2.25
				c4.6,2.07,15.57,3.98,32.9,5.75c0.77,0.1,1.42,0.47,1.95,1.1c0.5,0.57,0.7,1.23,0.6,2c-0.1,0.77-0.43,1.42-1,1.95
				c-0.63,0.5-1.33,0.72-2.1,0.65c-18.73-1.87-30.45-4-35.15-6.4c-1.93-0.97-3.08-1.98-3.45-3.05c-0.97-1.67-0.7-3.33,0.8-5
				c1.23-1.53,4.47-3.12,9.7-4.75c15.93-4.8,23.07-11.58,21.4-20.35c-2.5-10.27-5.72-20.07-9.65-29.4V85.3z"/>
		</g>
		<g>
			<g>
				<g>
					<g>
						<polygon fill-rule="evenodd" clip-rule="evenodd" fill="#693D11" points="78.45,9.75 78.45,11.64 77.76,12.09 77.76,10.15 
													"/>
						<polygon fill-rule="evenodd" clip-rule="evenodd" fill="#C96A0B" points="77.76,10.15 2.34,10.15 2.73,9.75 78.45,9.75 						
							"/>
						<rect x="2.34" y="10.15" fill-rule="evenodd" clip-rule="evenodd" fill="#9F5E1C" width="75.43" height="1.94"/>
					</g>
				</g>
				<g>
					<g>
						
							<linearGradient id="SVGID_1_" gradientUnits="userSpaceOnUse" x1="-150.3755" y1="-252.1001" x2="-150.3755" y2="-247.7001" gradientTransform="matrix(1.1411 0 0 1.1411 357.5587 296.055)">
							<stop  offset="0" style="stop-color:#000000"/>
							<stop  offset="0.1412" style="stop-color:#303030"/>
							<stop  offset="0.2784" style="stop-color:#777777"/>
							<stop  offset="0.3647" style="stop-color:#616161"/>
							<stop  offset="0.5882" style="stop-color:#2B2B2B"/>
							<stop  offset="0.6353" style="stop-color:#202020"/>
							<stop  offset="0.8275" style="stop-color:#000000"/>
							<stop  offset="1" style="stop-color:#000000"/>
						</linearGradient>
						<path fill-rule="evenodd" clip-rule="evenodd" fill="url(#SVGID_1_)" d="M180.4,10.21c0.01-0.69,0.07-1.31,0.17-1.88
							c0.15-0.61,0.3-0.91,0.46-0.91h10.5c-0.15,0-0.31,0.31-0.46,0.91c-0.11,0.65-0.17,1.37-0.17,2.17c0,0.88,0.06,1.62,0.17,2.23
							c0.11,0.46,0.23,0.74,0.34,0.86H181.2l0.06-0.06l-0.34,0.06c-0.11-0.11-0.23-0.4-0.34-0.86c-0.11-0.61-0.17-1.35-0.17-2.23
							C180.4,10.4,180.4,10.3,180.4,10.21z"/>
						
							<linearGradient id="SVGID_2_" gradientUnits="userSpaceOnUse" x1="-159.1504" y1="-249.7998" x2="-159.1504" y2="-245.1998" gradientTransform="matrix(1.1411 0 0 1.1411 357.5587 296.055)">
							<stop  offset="0" style="stop-color:#2C2C2C"/>
							<stop  offset="1" style="stop-color:#000000"/>
						</linearGradient>
						<path fill-rule="evenodd" clip-rule="evenodd" fill="url(#SVGID_2_)" d="M170.99,10.21h9.41c0,0.09,0,0.19,0,0.29
							c0,0.88,0.06,1.62,0.17,2.23c0.11,0.46,0.23,0.74,0.34,0.86L172.76,17h-0.06h-0.51c-0.3-0.23-0.57-0.84-0.8-1.83
							c-0.27-1.22-0.4-2.78-0.4-4.68C170.99,10.4,170.99,10.3,170.99,10.21z"/>
						
							<linearGradient id="SVGID_3_" gradientUnits="userSpaceOnUse" x1="-159.5137" y1="-251.2632" x2="-158.39" y2="-255.4385" gradientTransform="matrix(1.1411 0 0 1.1411 357.5587 296.055)">
							<stop  offset="0" style="stop-color:#2C2C2C"/>
							<stop  offset="1" style="stop-color:#000000"/>
						</linearGradient>
						<path fill-rule="evenodd" clip-rule="evenodd" fill="url(#SVGID_3_)" d="M180.4,10.21h-9.41c0.01-1.77,0.15-3.24,0.4-4.39
							c0.3-1.25,0.64-1.87,1.03-1.88l8.62,3.48c-0.15,0-0.3,0.3-0.46,0.91C180.47,8.9,180.42,9.52,180.4,10.21z"/>
						
							<linearGradient id="SVGID_4_" gradientUnits="userSpaceOnUse" x1="-145.4751" y1="-250.8999" x2="-145.4751" y2="-245.8999" gradientTransform="matrix(1.1411 0 0 1.1411 357.5587 296.055)">
							<stop  offset="0" style="stop-color:#2B2B2B"/>
							<stop  offset="1" style="stop-color:#000000"/>
						</linearGradient>
						<path fill-rule="evenodd" clip-rule="evenodd" fill="url(#SVGID_4_)" d="M191.53,7.41l0.17,0.11c0.15,0.15,0.25,0.42,0.29,0.8
							c0.15,0.57,0.23,1.29,0.23,2.17c0,0.91-0.08,1.65-0.23,2.23c-0.04,0.42-0.13,0.7-0.29,0.86h-0.29
							c-0.11-0.11-0.23-0.4-0.34-0.86c-0.11-0.61-0.17-1.35-0.17-2.23c0-0.8,0.06-1.52,0.17-2.17
							C191.22,7.72,191.38,7.42,191.53,7.41z"/>
						
							<linearGradient id="SVGID_5_" gradientUnits="userSpaceOnUse" x1="-167.5249" y1="-255.7002" x2="-167.5249" y2="-244.1002" gradientTransform="matrix(1.1411 0 0 1.1411 357.5587 296.055)">
							<stop  offset="0" style="stop-color:#000000"/>
							<stop  offset="0.1412" style="stop-color:#303030"/>
							<stop  offset="0.2784" style="stop-color:#777777"/>
							<stop  offset="0.3647" style="stop-color:#616161"/>
							<stop  offset="0.5882" style="stop-color:#2B2B2B"/>
							<stop  offset="0.6353" style="stop-color:#202020"/>
							<stop  offset="0.8275" style="stop-color:#000000"/>
							<stop  offset="1" style="stop-color:#000000"/>
						</linearGradient>
						<path fill-rule="evenodd" clip-rule="evenodd" fill="url(#SVGID_5_)" d="M161.8,3.93h10.61c-0.38,0.01-0.72,0.64-1.03,1.88
							c-0.25,1.16-0.39,2.62-0.4,4.39c0,0.09,0,0.19,0,0.29c0,1.9,0.13,3.46,0.4,4.68c0.23,0.99,0.5,1.6,0.8,1.83h-10.1h-0.51
							c-0.3-0.23-0.57-0.84-0.8-1.83c-0.27-1.22-0.4-2.78-0.4-4.68c0-0.1,0-0.19,0-0.29c0.01-1.77,0.15-3.24,0.4-4.39
							C161.08,4.57,161.42,3.94,161.8,3.93z"/>
						
							<linearGradient id="SVGID_6_" gradientUnits="userSpaceOnUse" x1="-212.1753" y1="-256.0249" x2="-212.1753" y2="-244.5752" gradientTransform="matrix(1.1411 0 0 1.1411 357.5587 296.055)">
							<stop  offset="0.0275" style="stop-color:#474747"/>
							<stop  offset="0.098" style="stop-color:#FFFFFF"/>
							<stop  offset="0.2118" style="stop-color:#A8A5A5"/>
							<stop  offset="0.3608" style="stop-color:#E7DADA"/>
							<stop  offset="0.3765" style="stop-color:#FFFFFF"/>
							<stop  offset="0.5333" style="stop-color:#FFFFFF"/>
							<stop  offset="0.5569" style="stop-color:#DBD7D7"/>
							<stop  offset="0.7098" style="stop-color:#7F7D7D"/>
							<stop  offset="0.8784" style="stop-color:#414141"/>
							<stop  offset="1" style="stop-color:#000000"/>
							<stop  offset="1" style="stop-color:#000000"/>
						</linearGradient>
						<path fill-rule="evenodd" clip-rule="evenodd" fill="url(#SVGID_6_)" d="M161.58,17H70.8h-0.51c-0.3-0.23-0.57-0.84-0.8-1.83
							c-0.27-1.22-0.4-2.78-0.4-4.68c0-1.9,0.13-3.46,0.4-4.68c0.3-1.26,0.65-1.88,1.03-1.88h91.29c-0.38,0.01-0.73,0.64-1.03,1.88
							c-0.25,1.16-0.39,2.62-0.4,4.39c0,0.09,0,0.19,0,0.29c0,1.9,0.13,3.46,0.4,4.68C161,16.16,161.27,16.77,161.58,17z"/>
					</g>
				</g>
				<g>
					<g>
						
							<radialGradient id="SVGID_7_" cx="-145.75" cy="-250.4531" r="2.2523" gradientTransform="matrix(1.1411 0 0 1.1411 357.5587 296.055)" gradientUnits="userSpaceOnUse">
							<stop  offset="0" style="stop-color:#FFFFFF;stop-opacity:0.2196"/>
							<stop  offset="1" style="stop-color:#FFFFFF;stop-opacity:0"/>
						</radialGradient>
						<path fill-rule="evenodd" clip-rule="evenodd" fill="url(#SVGID_7_)" d="M190.87,7.39c0.09-0.13,0.21-0.22,0.37-0.26
							c0.15-0.03,0.3,0,0.43,0.09c0.14,0.09,0.22,0.21,0.26,0.37c0.03,0.15,0,0.3-0.09,0.43c-0.48,0.81-0.53,2.39-0.14,4.74
							c0.02,0.16-0.02,0.3-0.11,0.43c-0.09,0.13-0.21,0.2-0.37,0.23c-0.16,0.02-0.3-0.02-0.43-0.11c-0.13-0.09-0.2-0.22-0.23-0.37
							C190.11,10.17,190.21,8.33,190.87,7.39z"/>
						
							<radialGradient id="SVGID_8_" cx="-163.5" cy="-251.5498" r="5.2375" gradientTransform="matrix(1.1411 0 0 1.1411 357.5587 296.055)" gradientUnits="userSpaceOnUse">
							<stop  offset="0" style="stop-color:#FFFFFF;stop-opacity:0.2196"/>
							<stop  offset="1" style="stop-color:#FFFFFF;stop-opacity:0"/>
						</radialGradient>
						<path fill-rule="evenodd" clip-rule="evenodd" fill="url(#SVGID_8_)" d="M172.36,3.82c0.07,0.15,0.08,0.3,0.03,0.46
							c-1.15,3.93-1.15,7.93,0,12.01c0.04,0.15,0.02,0.29-0.06,0.43c-0.08,0.13-0.19,0.22-0.34,0.26c-0.15,0.04-0.29,0.02-0.43-0.06
							c-0.13-0.08-0.22-0.19-0.26-0.34c-1.21-4.29-1.21-8.5,0-12.64c0.04-0.15,0.12-0.27,0.26-0.34c0.15-0.07,0.3-0.08,0.46-0.03
							C172.17,3.6,172.28,3.69,172.36,3.82z"/>
					</g>
				</g>
				<g>
					
						<radialGradient id="SVGID_9_" cx="-159.1001" cy="-252.6001" r="3.5203" gradientTransform="matrix(1.1029 0.2928 -0.086 0.3239 329.764 136.2107)" gradientUnits="userSpaceOnUse">
						<stop  offset="0" style="stop-color:#FFFFFF"/>
						<stop  offset="0.1922" style="stop-color:#FFFFFF"/>
						<stop  offset="0.2824" style="stop-color:#FFFFFF;stop-opacity:0.7333"/>
						<stop  offset="0.4157" style="stop-color:#FFFFFF;stop-opacity:0.6"/>
						<stop  offset="0.5882" style="stop-color:#FEFEFE;stop-opacity:0.3451"/>
						<stop  offset="0.8157" style="stop-color:#FCFCFC;stop-opacity:0.0863"/>
						<stop  offset="1" style="stop-color:#F9F9F9;stop-opacity:0"/>
					</radialGradient>
					<path fill-rule="evenodd" clip-rule="evenodd" fill="url(#SVGID_9_)" d="M178.46,9.35c-0.8-0.04-1.71-0.19-2.74-0.46
						c-1.06-0.27-1.94-0.61-2.62-1.03s-0.99-0.78-0.91-1.08s0.53-0.48,1.37-0.51c0.76,0,1.67,0.13,2.74,0.4
						c1.03,0.27,1.9,0.63,2.63,1.08c0.65,0.42,0.93,0.78,0.86,1.08C179.7,9.15,179.26,9.32,178.46,9.35z"/>
				</g>
				<g>
					
						<radialGradient id="SVGID_10_" cx="-163.4497" cy="-252.4502" r="2.2374" gradientTransform="matrix(-4.987898e-008 1.1411 -0.3506 -1.532594e-008 82.5332 194.4967)" gradientUnits="userSpaceOnUse">
						<stop  offset="0" style="stop-color:#FFFFFF"/>
						<stop  offset="0.1922" style="stop-color:#FFFFFF"/>
						<stop  offset="0.2824" style="stop-color:#FFFFFF;stop-opacity:0.7333"/>
						<stop  offset="0.4157" style="stop-color:#FFFFFF;stop-opacity:0.6"/>
						<stop  offset="0.5882" style="stop-color:#FEFEFE;stop-opacity:0.3451"/>
						<stop  offset="0.8157" style="stop-color:#FCFCFC;stop-opacity:0.0863"/>
						<stop  offset="1" style="stop-color:#F9F9F9;stop-opacity:0"/>
					</radialGradient>
					<path fill-rule="evenodd" clip-rule="evenodd" fill="url(#SVGID_10_)" d="M170.48,9.75c-0.11-0.49-0.17-1.08-0.17-1.77
						c0-0.68,0.06-1.27,0.17-1.77c0.15-0.49,0.34-0.74,0.57-0.74s0.42,0.25,0.57,0.74c0.11,0.49,0.17,1.08,0.17,1.77
						c0,0.69-0.06,1.27-0.17,1.77c-0.15,0.46-0.34,0.69-0.57,0.69S170.63,10.21,170.48,9.75z"/>
				</g>
				<g>
					
						<radialGradient id="SVGID_11_" cx="-172.6997" cy="-252.8501" r="2.2374" gradientTransform="matrix(-4.987898e-008 1.1411 -0.3506 -1.532594e-008 71.8379 204.5955)" gradientUnits="userSpaceOnUse">
						<stop  offset="0" style="stop-color:#FFFFFF"/>
						<stop  offset="0.1922" style="stop-color:#FFFFFF"/>
						<stop  offset="0.2824" style="stop-color:#FFFFFF;stop-opacity:0.7333"/>
						<stop  offset="0.4157" style="stop-color:#FFFFFF;stop-opacity:0.6"/>
						<stop  offset="0.5882" style="stop-color:#FEFEFE;stop-opacity:0.3451"/>
						<stop  offset="0.8157" style="stop-color:#FCFCFC;stop-opacity:0.0863"/>
						<stop  offset="1" style="stop-color:#F9F9F9;stop-opacity:0"/>
					</radialGradient>
					<path fill-rule="evenodd" clip-rule="evenodd" fill="url(#SVGID_11_)" d="M159.92,9.3c-0.11-0.5-0.17-1.08-0.17-1.77
						c0-0.69,0.06-1.27,0.17-1.77c0.15-0.49,0.34-0.74,0.57-0.74c0.23,0,0.42,0.25,0.57,0.74c0.11,0.49,0.17,1.08,0.17,1.77
						c0,0.68-0.06,1.27-0.17,1.77c-0.15,0.46-0.34,0.68-0.57,0.68C160.26,9.98,160.07,9.75,159.92,9.3z"/>
				</g>
				<g>
					
						<radialGradient id="SVGID_12_" cx="-155.25" cy="-250.8994" r="1.3745" gradientTransform="matrix(-4.987898e-008 1.1411 -0.3527 -1.541714e-008 91.9102 186.9096)" gradientUnits="userSpaceOnUse">
						<stop  offset="0" style="stop-color:#FFFFFF"/>
						<stop  offset="0.1922" style="stop-color:#FFFFFF"/>
						<stop  offset="0.2824" style="stop-color:#FFFFFF;stop-opacity:0.7333"/>
						<stop  offset="0.4157" style="stop-color:#FFFFFF;stop-opacity:0.6"/>
						<stop  offset="0.5882" style="stop-color:#FEFEFE;stop-opacity:0.3451"/>
						<stop  offset="0.8157" style="stop-color:#FCFCFC;stop-opacity:0.0863"/>
						<stop  offset="1" style="stop-color:#F9F9F9;stop-opacity:0"/>
					</radialGradient>
					<path fill-rule="evenodd" clip-rule="evenodd" fill="url(#SVGID_12_)" d="M180.06,10.84c-0.08-0.3-0.11-0.67-0.11-1.08
						s0.04-0.78,0.11-1.08c0.11-0.3,0.23-0.46,0.34-0.46s0.23,0.15,0.34,0.46c0.08,0.3,0.11,0.67,0.11,1.08s-0.04,0.78-0.11,1.08
						c-0.11,0.3-0.23,0.46-0.34,0.46S180.17,11.14,180.06,10.84z"/>
				</g>
			</g>
		</g>
		<g>
			<path fill-rule="evenodd" clip-rule="evenodd" fill="#B1B5B0" d="M233.2,84.05c-1.57-1.03-2.85-3.22-3.85-6.55
				c-1.63-5.33-2.55-14.25-2.75-26.75c-0.37-22.3-4.78-34.28-13.25-35.95c-6.27-1-11.53-1.63-15.8-1.9
				c-0.47-0.03-0.88-0.15-1.25-0.35c-1.73-0.03-3.22-0.03-4.45,0c-0.77-1.73-0.77-3.42,0-5.05c1.27,0,2.73,0.03,4.4,0.1
				c0.47-0.3,1-0.43,1.6-0.4c4.43,0.27,9.9,0.92,16.4,1.95c11.6,1.3,17.63,15.12,18.1,41.45c0.17,11.77,1,20.18,2.5,25.25
				c0.53,1.77,1.12,3,1.75,3.7c0.13-0.03,0.35-0.12,0.65-0.25c4-2.73,8.17-1.9,12.5,2.5c3.33,3.3,6.75,9.27,10.25,17.9
				c3.77,9.23,3.63,16.62-0.4,22.15c-3.63,5.47-11,9.08-22.1,10.85c-8.13,1.27-12.62,2.22-13.45,2.85c0.53-0.17,4.03,0.37,10.5,1.6
				c9.27,1.83,16,3.73,20.2,5.7c6.2,2.83,8.22,5.97,6.05,9.4c-1,2.97-6.12,4.43-15.35,4.4c-7.7-0.1-18.73-1.15-33.1-3.15
				c-0.8-0.1-1.42-0.48-1.85-1.15c-0.5-0.63-0.68-1.33-0.55-2.1c0.07-0.77,0.43-1.4,1.1-1.9c0.63-0.47,1.33-0.65,2.1-0.55
				c14.1,2,24.88,3.03,32.35,3.1c5.93,0.03,9.32-0.35,10.15-1.15c-0.1-0.2-1.18-0.78-3.25-1.75c-3.93-1.77-10.25-3.52-18.95-5.25
				c-11.4-2.23-16.4-5.18-15-8.85c0.33-2.73,6.4-5,18.2-6.8c9.03-1.47,15.1-4.32,18.2-8.55c2.7-4.17,2.65-9.73-0.15-16.7
				c-3.17-7.67-6.18-13.02-9.05-16.05c-1.93-1.97-3.73-2.52-5.4-1.65C237.55,85.78,235.2,85.75,233.2,84.05z"/>
		</g>
		<g>
			
				<path fill-rule="evenodd" clip-rule="evenodd" fill="none" stroke="#B1B5B0" stroke-width="5" stroke-linecap="round" stroke-linejoin="round" stroke-miterlimit="3" d="
				M196.75,136.25c41.93-4.47,60.32-1.22,55.15,9.75c-39.17-1.63-59.25-3.92-60.25-6.85"/>
		</g>
	</g>
</g>
</svg>
