<?xml version="1.0" encoding="utf-8"?>
<!-- Generator: Adobe Illustrator 16.0.0, SVG Export Plug-In . SVG Version: 6.00 Build 0)  -->
<!DOCTYPE svg PUBLIC "-//W3C//DTD SVG 1.1//EN" "http://www.w3.org/Graphics/SVG/1.1/DTD/svg11.dtd">
<svg version="1.1" id="Layer_4" xmlns="http://www.w3.org/2000/svg" xmlns:xlink="http://www.w3.org/1999/xlink" x="0px" y="0px"
	 width="79.33px" height="85.67px" viewBox="0 0 79.33 85.67" enable-background="new 0 0 79.33 85.67" xml:space="preserve">
<g id="Layer_2_2_">
	<g>
		<g>
			
				<radialGradient id="SVGID_1_" cx="148.7295" cy="-268.5532" r="32.7147" gradientTransform="matrix(0.9986 0.0519 0.1603 -1.1172 -67.8437 -262.2856)" gradientUnits="userSpaceOnUse">
				<stop  offset="0" style="stop-color:#000000;stop-opacity:0.8"/>
				<stop  offset="0.7412" style="stop-color:#000000;stop-opacity:0.4431"/>
				<stop  offset="0.9804" style="stop-color:#000000;stop-opacity:0"/>
			</radialGradient>
			<path fill="url(#SVGID_1_)" d="M69.97,15.33c3.1,4.19,5.24,8.75,6.42,13.66c1.1,4.94,1.27,10.19,0.48,15.76
				c-1.59,11.12-6.66,20.45-15.21,28C54.36,79.46,46.35,83,37.64,83.38c-1.31,0.11-2.62,0.14-3.93,0.09
				c-10.26-0.53-18.48-5-24.64-13.42C3,61.73,0.75,52.02,2.34,40.91c0.22-1.42,0.49-2.8,0.81-4.14c2.11-9.37,6.84-17.42,14.2-24.15
				c8.39-7.5,17.75-10.99,28.07-10.46c1.31,0.08,2.58,0.2,3.81,0.36C57.72,3.89,64.63,8.16,69.97,15.33z"/>
		</g>
		<g>
			<path fill="#1C1F20" d="M65.5,50.47c-0.08-0.22-0.18-0.43-0.29-0.61c-0.88-1.86-2.16-3.66-3.86-5.4
				c-1.34-1.33-2.89-2.52-4.64-3.55c-2.85-1.74-6.15-2.71-9.92-2.89c-0.76-0.02-1.54-0.02-2.33,0c-0.76,0.03-1.56,0.1-2.37,0.21
				c-3.79,0.56-7.19,2.13-10.19,4.73c-0.52,0.47-1.05,0.99-1.59,1.56l-0.65,0.74c-0.79,0.96-1.45,1.95-2,2.95
				c-0.41,0.71-0.75,1.45-1.02,2.21c-0.22,0.47-0.38,0.96-0.49,1.48c-0.3,1.01-0.5,2.01-0.61,2.99l0.84-9.67l1.08-12.9
				c0.08-0.27,0.18-0.53,0.29-0.78c1-2.81,2.76-5.29,5.27-7.42c4-3.51,8.78-5.1,14.32-4.78c5.51,0.29,10.19,2.37,14.02,6.23
				c3.45,3.54,5.27,7.61,5.47,12.19l0,1.39l0.1,8.6l0.1,8.35c-0.08-0.88-0.23-1.75-0.46-2.62C66.3,52.49,65.94,51.48,65.5,50.47z"/>
			<path d="M65.5,50.47c-1,1.56-2.25,3.01-3.72,4.35c-4.33,4-9.47,5.83-15.42,5.52c-5.98-0.32-11.04-2.68-15.17-7.09
				c-1.42-1.58-2.6-3.25-3.53-5.03c0.55-1.01,1.21-1.99,2-2.95l0.65-0.74c0.55-0.57,1.08-1.09,1.59-1.56c3-2.6,6.39-4.17,10.19-4.73
				c0.82-0.11,1.61-0.18,2.37-0.21c0.79-0.03,1.57-0.03,2.33,0c3.77,0.18,7.07,1.15,9.92,2.89c1.75,1.04,3.3,2.21,4.64,3.55
				c1.7,1.74,2.98,3.54,3.86,5.4C65.32,50.05,65.42,50.25,65.5,50.47z"/>
		</g>
		<g>
			<g>
				<path fill="#FFFFFF" fill-opacity="0.0863" d="M42.16,12.32c0.47-0.19,0.92-0.31,1.35-0.37L42.7,34.27
					c-0.3,0-0.59,0.04-0.86,0.13c-0.14,0.06-0.29,0.08-0.45,0.08L42.16,12.32z M29.98,24.67c0.49-1.04,1-2.03,1.55-2.95l-1.06,22.52
					c-0.14,0.16-0.29,0.34-0.45,0.53l-0.57,1.31c-0.16,0.22-0.31,0.52-0.45,0.9L29.98,24.67z M36.06,15.9
					c0.49-0.52,0.96-0.92,1.43-1.19l-0.97,22.32c-0.52,0.35-1,0.76-1.43,1.23L36.06,15.9z M47.23,11.74c0.47,0,0.92,0.06,1.35,0.2
					L48.1,34.17c-0.43-0.14-0.9-0.2-1.39-0.2L47.23,11.74z M52.6,13.36c0.41,0.24,0.84,0.51,1.27,0.77L53.8,36.58
					c-0.47-0.33-0.92-0.65-1.35-0.98L52.6,13.36z M62.17,25.01c0.08-0.17,0.19-0.27,0.33-0.33c0.25,0.6,0.52,1.19,0.82,1.76
					l0.42,23.67c-0.44-1.09-0.93-2.11-1.48-3.07l-0.29-21.25C61.96,25.46,62.03,25.2,62.17,25.01z M57.65,17.28
					c0.44,0.55,0.89,1.09,1.35,1.63l0.05,22.77c-0.47-0.57-0.92-1.09-1.35-1.55L57.65,17.28z"/>
			</g>
			<g>
				<path fill-opacity="0.6196" d="M43.1,12.03c0.47-0.14,0.92-0.23,1.35-0.29L43.64,34.1c-0.49,0.06-0.96,0.11-1.39,0.17
					L43.1,12.03z M30.92,22.91c0.43-0.93,0.92-1.78,1.47-2.54l-1.06,22.36c-0.43,0.63-0.87,1.31-1.31,2.05l-0.2,0.49L30.92,22.91z
					 M36.96,15.12c0.47-0.41,0.92-0.78,1.39-1.11l-0.98,22.32c-0.47,0.35-0.94,0.72-1.43,1.11L36.96,15.12z M47.97,11.94
					c0.49,0,0.96,0.06,1.39,0.16L48.8,34.38c-0.43-0.14-0.88-0.23-1.31-0.29L47.97,11.94z M62.78,25.79c0-0.19,0.02-0.31,0.04-0.37
					c0.47,1.06,0.92,2.19,1.36,3.36l0.34,23.54c-0.44-1.28-0.89-2.47-1.36-3.56L62.78,25.79z M58.34,18.22
					c0.47,0.51,0.92,1.09,1.36,1.72l0.09,22.85c-0.41-0.6-0.88-1.24-1.4-1.92L58.34,18.22z M53.26,13.73
					c0.44,0.27,0.9,0.59,1.39,0.94l-0.12,22.32c-0.49-0.27-0.96-0.57-1.39-0.9L53.26,13.73z"/>
			</g>
		</g>
		<g>
			
				<linearGradient id="SVGID_2_" gradientUnits="userSpaceOnUse" x1="44.4995" y1="-310.5166" x2="87.8638" y2="-310.5166" gradientTransform="matrix(0.9987 0.0516 0.0283 -0.9999 -9.8021 -288.2407)">
				<stop  offset="0" style="stop-color:#222222"/>
				<stop  offset="0.3294" style="stop-color:#222222"/>
				<stop  offset="0.5255" style="stop-color:#4D4D4D"/>
				<stop  offset="0.6627" style="stop-color:#222222"/>
				<stop  offset="1" style="stop-color:#222222"/>
			</linearGradient>
			<path fill="url(#SVGID_2_)" d="M62.98,20.34c1.7,1.82,3.02,3.78,3.98,5.85c1.42,3,2.09,6.28,1.99,9.82
				c-0.06,1.09-0.16,2.15-0.32,3.15c-0.01-3.01-0.56-5.8-1.66-8.39c-0.99-2.32-2.41-4.48-4.27-6.5c-4.13-4.41-9.17-6.78-15.13-7.09
				c-6-0.31-11.16,1.52-15.47,5.52c-1.77,1.56-3.2,3.34-4.29,5.33c-1.08,1.97-1.82,4.1-2.2,6.39l0.85-6.39
				c0.41-1.23,0.9-2.4,1.47-3.53c1.08-2.11,2.57-4,4.45-5.7c4.33-4.02,9.5-5.88,15.51-5.56C53.85,13.56,58.87,15.93,62.98,20.34z"/>
			<path d="M47.33,19.35c-5.55-0.32-10.32,1.28-14.32,4.78c-2.51,2.13-4.26,4.61-5.27,7.42c-0.11,0.25-0.2,0.51-0.29,0.78
				l-1.08,12.9c-0.44-1.29-0.74-2.6-0.91-3.93c-1.15-2.87-1.69-5.92-1.62-9.17c0.18-6.22,2.62-11.46,7.34-15.7
				c4.68-4.25,10.25-6.19,16.69-5.85c6.39,0.34,11.8,2.86,16.23,7.54c1.09,1.14,2.04,2.35,2.83,3.6c2.49,3.84,3.68,8.12,3.55,12.81
				c-0.07,3.5-0.86,6.66-2.35,9.5c-0.27,1.23-0.65,2.42-1.14,3.57c-0.02,0.06-0.06,0.11-0.08,0.16l-0.1-8.6l0-1.39
				c-0.2-4.59-2.03-8.65-5.47-12.19C57.52,21.71,52.84,19.63,47.33,19.35z M62.98,20.34c-4.1-4.41-9.13-6.78-15.08-7.09
				c-6-0.31-11.18,1.54-15.51,5.56c-1.88,1.7-3.37,3.59-4.45,5.7c-0.57,1.12-1.06,2.3-1.47,3.53l-0.85,6.39
				c0.38-2.29,1.11-4.42,2.2-6.39c1.08-1.99,2.51-3.77,4.29-5.33c4.31-4,9.46-5.83,15.47-5.52c5.95,0.31,11,2.68,15.13,7.09
				c1.86,2.02,3.29,4.19,4.27,6.5c1.1,2.59,1.65,5.38,1.66,8.39c0.16-1.01,0.27-2.06,0.32-3.15c0.1-3.55-0.56-6.82-1.99-9.82
				C66,24.11,64.68,22.16,62.98,20.34z"/>
		</g>
		<g>
			
				<radialGradient id="SVGID_3_" cx="65.999" cy="-1164.4551" r="14.774" gradientTransform="matrix(0.9986 0.0518 0.0109 -0.3964 -4.8814 -454.4582)" gradientUnits="userSpaceOnUse">
				<stop  offset="0" style="stop-color:#FFFFFF"/>
				<stop  offset="0" style="stop-color:#FFFFFF;stop-opacity:0.498"/>
				<stop  offset="0.0863" style="stop-color:#FFFFFF;stop-opacity:0.498"/>
				<stop  offset="0.302" style="stop-color:#FFFFFF;stop-opacity:0.2"/>
				<stop  offset="0.4902" style="stop-color:#FFFFFF;stop-opacity:0.0863"/>
				<stop  offset="0.6784" style="stop-color:#FFFFFF;stop-opacity:0.0275"/>
				<stop  offset="1" style="stop-color:#FFFFFF;stop-opacity:0"/>
			</radialGradient>
			<path fill="url(#SVGID_3_)" d="M58.69,7.21c2.87,1.2,4.29,2.59,4.27,4.17c-0.08,1.64-1.57,2.91-4.46,3.82
				c-2.95,1.01-6.4,1.42-10.36,1.21c-3.96-0.21-7.39-0.98-10.28-2.31c-2.68-1.2-3.99-2.6-3.94-4.21c0.05-1.61,1.43-2.87,4.13-3.78
				c2.97-1.01,6.44-1.42,10.4-1.21C52.4,5.1,55.82,5.87,58.69,7.21z"/>
		</g>
		<g>
			<g>
				
					<linearGradient id="SVGID_4_" gradientUnits="userSpaceOnUse" x1="429.4141" y1="892.9854" x2="466.5518" y2="892.9854" gradientTransform="matrix(-0.0287 0.9996 0.9989 0.0518 -832.8405 -447.4437)">
					<stop  offset="0" style="stop-color:#4E4D5E"/>
					<stop  offset="1" style="stop-color:#0C0C0E"/>
				</linearGradient>
				<path fill="url(#SVGID_4_)" d="M61.26,39.1c1.7,1.69,3,3.47,3.9,5.36c0.57,1.2,1.01,2.41,1.32,3.64
					c0.25,0.84,0.41,1.72,0.5,2.62c0.03,0.33,0.03,0.67,0,1.02l0,1.47c-0.15,5.4-2.31,9.9-6.48,13.49c-2.48,2.16-5.3,3.66-8.47,4.48
					c-1.96,0.47-4.11,0.64-6.43,0.51l-1.84-0.12c-4.86-0.56-9.11-2.7-12.75-6.4c-0.66-0.63-1.35-1.41-2.09-2.37
					c-2.49-3.27-3.68-7.17-3.59-11.7c0.02-0.16,0.04-0.3,0.04-0.41c0-0.38,0.04-0.78,0.12-1.19c0.05-0.98,0.23-1.99,0.52-3.03
					c0.11-0.52,0.29-1,0.53-1.43c0.65-1.8,1.67-3.53,3.06-5.17l0.57-0.78c0.55-0.57,1.08-1.08,1.59-1.52
					c3.05-2.63,6.46-4.19,10.23-4.69c0.79-0.11,1.57-0.19,2.33-0.25c0.84-0.06,1.64-0.07,2.38-0.05c3.74,0.21,7.03,1.17,9.87,2.88
					C58.36,36.53,59.92,37.74,61.26,39.1z"/>
				
					<path fill="none" stroke="#000000" stroke-width="0.1" stroke-linecap="round" stroke-linejoin="round" stroke-miterlimit="3" d="
					M61.26,39.1c1.7,1.69,3,3.47,3.9,5.36c0.57,1.2,1.01,2.41,1.32,3.64c0.25,0.84,0.41,1.72,0.5,2.62c0.03,0.33,0.03,0.67,0,1.02
					l0,1.47c-0.15,5.4-2.31,9.9-6.48,13.49c-2.48,2.16-5.3,3.66-8.47,4.48c-1.96,0.47-4.11,0.64-6.43,0.51l-1.84-0.12
					c-4.86-0.56-9.11-2.7-12.75-6.4c-0.66-0.63-1.35-1.41-2.09-2.37c-2.49-3.27-3.68-7.17-3.59-11.7c0.02-0.16,0.04-0.3,0.04-0.41
					c0-0.38,0.04-0.78,0.12-1.19c0.05-0.98,0.23-1.99,0.52-3.03c0.11-0.52,0.29-1,0.53-1.43c0.65-1.8,1.67-3.53,3.06-5.17l0.57-0.78
					c0.55-0.57,1.08-1.08,1.59-1.52c3.05-2.63,6.46-4.19,10.23-4.69c0.79-0.11,1.57-0.19,2.33-0.25c0.84-0.06,1.64-0.07,2.38-0.05
					c3.74,0.21,7.03,1.17,9.87,2.88C58.36,36.53,59.92,37.74,61.26,39.1z"/>
			</g>
			<g>
				
					<linearGradient id="SVGID_5_" gradientUnits="userSpaceOnUse" x1="26.7007" y1="52.2227" x2="66.0174" y2="52.2227" gradientTransform="matrix(1 -2.181517e-003 2.183233e-003 1 -0.0927 0.0873)">
					<stop  offset="0" style="stop-color:#000000"/>
					<stop  offset="1" style="stop-color:#303030"/>
				</linearGradient>
				<path fill="url(#SVGID_5_)" d="M46.83,34.5c5.24,0.23,9.61,2.21,13.12,5.91c3.61,3.6,5.32,7.83,5.15,12.72
					c-0.13,4.92-2.07,9.05-5.83,12.42v-0.08c-3.74,3.2-8.21,4.69-13.42,4.45c-5.24-0.29-9.64-2.21-13.2-5.79v-0.08
					c-3.53-3.65-5.23-7.95-5.11-12.89c0.18-4.86,2.11-8.92,5.79-12.17C37.11,35.71,41.62,34.21,46.83,34.5z M59.25,41.11l0-0.04
					c-3.31-3.46-7.45-5.31-12.42-5.54c-4.94-0.29-9.19,1.14-12.77,4.29l0-0.08c-3.51,3.1-5.33,6.93-5.46,11.52
					c-0.15,4.67,1.44,8.72,4.78,12.15c3.39,3.38,7.56,5.21,12.5,5.5c4.97,0.24,9.21-1.15,12.73-4.16c3.52-3.09,5.33-6.99,5.46-11.68
					C64.2,48.5,62.59,44.51,59.25,41.11z"/>
			</g>
			<g>
				
					<radialGradient id="SVGID_6_" cx="63.4907" cy="-1182.6113" r="14.7732" gradientTransform="matrix(0.9986 0.0518 0.0109 -0.3964 -5.4366 -434.2873)" gradientUnits="userSpaceOnUse">
					<stop  offset="0" style="stop-color:#FFFFFF"/>
					<stop  offset="0" style="stop-color:#FFFFFF;stop-opacity:0.498"/>
					<stop  offset="0.0863" style="stop-color:#FFFFFF;stop-opacity:0.498"/>
					<stop  offset="0.302" style="stop-color:#FFFFFF;stop-opacity:0.2"/>
					<stop  offset="0.4902" style="stop-color:#FFFFFF;stop-opacity:0.0863"/>
					<stop  offset="0.6784" style="stop-color:#FFFFFF;stop-opacity:0.0275"/>
					<stop  offset="1" style="stop-color:#FFFFFF;stop-opacity:0"/>
				</radialGradient>
				<path fill="url(#SVGID_6_)" d="M59.7,38.61c-0.05,1.66-1.52,2.94-4.41,3.82c-2.97,1.01-6.44,1.42-10.4,1.21
					s-7.39-0.97-10.28-2.27c-2.62-1.2-3.91-2.63-3.86-4.29c0.05-1.56,1.43-2.79,4.13-3.69c2.97-1.01,6.44-1.42,10.4-1.21
					c3.93,0.18,7.36,0.93,10.28,2.23C58.37,35.65,59.75,37.06,59.7,38.61z"/>
			</g>
		</g>
	</g>
</g>
</svg>
