<?xml version="1.0" encoding="utf-8"?>
<!-- Generator: Adobe Illustrator 16.0.0, SVG Export Plug-In . SVG Version: 6.00 Build 0)  -->
<!DOCTYPE svg PUBLIC "-//W3C//DTD SVG 1.1//EN" "http://www.w3.org/Graphics/SVG/1.1/DTD/svg11.dtd">
<svg version="1.1" id="Layer_1" xmlns="http://www.w3.org/2000/svg" xmlns:xlink="http://www.w3.org/1999/xlink" x="0px" y="0px"
	 width="74.17px" height="2908.84px" viewBox="0 0 74.17 2908.84" enable-background="new 0 0 74.17 2908.84" xml:space="preserve">
<g>
	<line fill="none" stroke="#000000" stroke-miterlimit="10" x1="75.45" y1="2893.68" x2="27.47" y2="2893.68"/>
	<line fill="none" stroke="#000000" stroke-miterlimit="10" x1="75.45" y1="2886.49" x2="54.97" y2="2886.49"/>
	<line fill="none" stroke="#000000" stroke-miterlimit="10" x1="75.45" y1="2879.31" x2="46.96" y2="2879.31"/>
	<line fill="none" stroke="#000000" stroke-miterlimit="10" x1="75.45" y1="2872.13" x2="54.97" y2="2872.13"/>
	<line fill="none" stroke="#000000" stroke-miterlimit="10" x1="75.45" y1="2864.95" x2="46.96" y2="2864.95"/>
	<line fill="none" stroke="#000000" stroke-miterlimit="10" x1="75.45" y1="2857.76" x2="54.53" y2="2857.76"/>
	<line fill="none" stroke="#000000" stroke-miterlimit="10" x1="75.45" y1="2850.58" x2="46.96" y2="2850.58"/>
	<line fill="none" stroke="#000000" stroke-miterlimit="10" x1="75.45" y1="2843.39" x2="54.97" y2="2843.39"/>
	<line fill="none" stroke="#000000" stroke-miterlimit="10" x1="75.45" y1="2836.21" x2="46.96" y2="2836.21"/>
	<line fill="none" stroke="#000000" stroke-miterlimit="10" x1="75.45" y1="2829.03" x2="54.97" y2="2829.03"/>
	<line fill="none" stroke="#000000" stroke-miterlimit="10" x1="75.45" y1="2821.85" x2="35.45" y2="2821.85"/>
	<line fill="none" stroke="#000000" stroke-miterlimit="10" x1="75.45" y1="2814.66" x2="54.97" y2="2814.66"/>
	<line fill="none" stroke="#000000" stroke-miterlimit="10" x1="75.45" y1="2807.48" x2="46.96" y2="2807.48"/>
	<line fill="none" stroke="#000000" stroke-miterlimit="10" x1="75.45" y1="2800.3" x2="54.97" y2="2800.3"/>
	<line fill="none" stroke="#000000" stroke-miterlimit="10" x1="75.45" y1="2793.12" x2="46.96" y2="2793.12"/>
	<line fill="none" stroke="#000000" stroke-miterlimit="10" x1="75.45" y1="2785.93" x2="55.33" y2="2785.93"/>
	<line fill="none" stroke="#000000" stroke-miterlimit="10" x1="75.45" y1="2778.75" x2="46.96" y2="2778.75"/>
	<line fill="none" stroke="#000000" stroke-miterlimit="10" x1="75.45" y1="2771.57" x2="54.97" y2="2771.57"/>
	<line fill="none" stroke="#000000" stroke-miterlimit="10" x1="75.45" y1="2764.38" x2="46.96" y2="2764.38"/>
	<line fill="none" stroke="#000000" stroke-miterlimit="10" x1="75.45" y1="2757.2" x2="54.97" y2="2757.2"/>
	<line fill="none" stroke="#000000" stroke-miterlimit="10" x1="75.45" y1="2750.02" x2="27.44" y2="2750.02"/>
	<g>
		<line fill="none" stroke="#000000" stroke-miterlimit="10" x1="75.49" y1="2742.82" x2="55.01" y2="2742.82"/>
		<line fill="none" stroke="#000000" stroke-miterlimit="10" x1="75.49" y1="2735.64" x2="46.99" y2="2735.64"/>
		<line fill="none" stroke="#000000" stroke-miterlimit="10" x1="75.49" y1="2728.46" x2="55.01" y2="2728.46"/>
		<line fill="none" stroke="#000000" stroke-miterlimit="10" x1="75.49" y1="2721.28" x2="46.99" y2="2721.28"/>
		<line fill="none" stroke="#000000" stroke-miterlimit="10" x1="75.49" y1="2714.09" x2="54.56" y2="2714.09"/>
		<line fill="none" stroke="#000000" stroke-miterlimit="10" x1="75.49" y1="2706.91" x2="46.99" y2="2706.91"/>
		<line fill="none" stroke="#000000" stroke-miterlimit="10" x1="75.49" y1="2699.73" x2="55.01" y2="2699.73"/>
		<line fill="none" stroke="#000000" stroke-miterlimit="10" x1="75.49" y1="2692.54" x2="46.99" y2="2692.54"/>
		<line fill="none" stroke="#000000" stroke-miterlimit="10" x1="75.49" y1="2685.36" x2="55.01" y2="2685.36"/>
		<line fill="none" stroke="#000000" stroke-miterlimit="10" x1="75.49" y1="2678.18" x2="35.49" y2="2678.18"/>
		<line fill="none" stroke="#000000" stroke-miterlimit="10" x1="75.49" y1="2671" x2="55.01" y2="2671"/>
		<line fill="none" stroke="#000000" stroke-miterlimit="10" x1="75.49" y1="2663.81" x2="46.99" y2="2663.81"/>
		<line fill="none" stroke="#000000" stroke-miterlimit="10" x1="75.49" y1="2656.63" x2="55.01" y2="2656.63"/>
		<line fill="none" stroke="#000000" stroke-miterlimit="10" x1="75.49" y1="2649.45" x2="46.99" y2="2649.45"/>
		<line fill="none" stroke="#000000" stroke-miterlimit="10" x1="75.49" y1="2642.26" x2="55.36" y2="2642.26"/>
		<line fill="none" stroke="#000000" stroke-miterlimit="10" x1="75.49" y1="2635.08" x2="46.99" y2="2635.08"/>
		<line fill="none" stroke="#000000" stroke-miterlimit="10" x1="75.49" y1="2627.9" x2="55.01" y2="2627.9"/>
		<line fill="none" stroke="#000000" stroke-miterlimit="10" x1="75.49" y1="2620.72" x2="46.99" y2="2620.72"/>
		<line fill="none" stroke="#000000" stroke-miterlimit="10" x1="75.49" y1="2613.53" x2="55.01" y2="2613.53"/>
		<line fill="none" stroke="#000000" stroke-miterlimit="10" x1="75.49" y1="2606.35" x2="27.47" y2="2606.35"/>
	</g>
	<g>
		<line fill="none" stroke="#000000" stroke-miterlimit="10" x1="75.46" y1="2599.16" x2="54.98" y2="2599.16"/>
		<line fill="none" stroke="#000000" stroke-miterlimit="10" x1="75.46" y1="2591.98" x2="46.97" y2="2591.98"/>
		<line fill="none" stroke="#000000" stroke-miterlimit="10" x1="75.46" y1="2584.8" x2="54.98" y2="2584.8"/>
		<line fill="none" stroke="#000000" stroke-miterlimit="10" x1="75.46" y1="2577.62" x2="46.97" y2="2577.62"/>
		<line fill="none" stroke="#000000" stroke-miterlimit="10" x1="75.46" y1="2570.43" x2="54.54" y2="2570.43"/>
		<line fill="none" stroke="#000000" stroke-miterlimit="10" x1="75.46" y1="2563.25" x2="46.97" y2="2563.25"/>
		<line fill="none" stroke="#000000" stroke-miterlimit="10" x1="75.46" y1="2556.07" x2="54.98" y2="2556.07"/>
		<line fill="none" stroke="#000000" stroke-miterlimit="10" x1="75.46" y1="2548.88" x2="46.97" y2="2548.88"/>
		<line fill="none" stroke="#000000" stroke-miterlimit="10" x1="75.46" y1="2541.7" x2="54.98" y2="2541.7"/>
		<line fill="none" stroke="#000000" stroke-miterlimit="10" x1="75.46" y1="2534.52" x2="35.46" y2="2534.52"/>
		<line fill="none" stroke="#000000" stroke-miterlimit="10" x1="75.46" y1="2527.33" x2="54.98" y2="2527.33"/>
		<line fill="none" stroke="#000000" stroke-miterlimit="10" x1="75.46" y1="2520.15" x2="46.97" y2="2520.15"/>
		<line fill="none" stroke="#000000" stroke-miterlimit="10" x1="75.46" y1="2512.97" x2="54.98" y2="2512.97"/>
		<line fill="none" stroke="#000000" stroke-miterlimit="10" x1="75.46" y1="2505.79" x2="46.97" y2="2505.79"/>
		<line fill="none" stroke="#000000" stroke-miterlimit="10" x1="75.46" y1="2498.6" x2="55.34" y2="2498.6"/>
		<line fill="none" stroke="#000000" stroke-miterlimit="10" x1="75.46" y1="2491.42" x2="46.97" y2="2491.42"/>
		<line fill="none" stroke="#000000" stroke-miterlimit="10" x1="75.46" y1="2484.24" x2="54.98" y2="2484.24"/>
		<line fill="none" stroke="#000000" stroke-miterlimit="10" x1="75.46" y1="2477.06" x2="46.97" y2="2477.06"/>
		<line fill="none" stroke="#000000" stroke-miterlimit="10" x1="75.46" y1="2469.87" x2="54.98" y2="2469.87"/>
		<line fill="none" stroke="#000000" stroke-miterlimit="10" x1="75.46" y1="2462.69" x2="27.45" y2="2462.69"/>
		<g>
			<line fill="none" stroke="#000000" stroke-miterlimit="10" x1="75.49" y1="2455.49" x2="55.01" y2="2455.49"/>
			<line fill="none" stroke="#000000" stroke-miterlimit="10" x1="75.49" y1="2448.31" x2="47" y2="2448.31"/>
			<line fill="none" stroke="#000000" stroke-miterlimit="10" x1="75.49" y1="2441.13" x2="55.01" y2="2441.13"/>
			<line fill="none" stroke="#000000" stroke-miterlimit="10" x1="75.49" y1="2433.95" x2="47" y2="2433.95"/>
			<line fill="none" stroke="#000000" stroke-miterlimit="10" x1="75.49" y1="2426.76" x2="54.57" y2="2426.76"/>
			<line fill="none" stroke="#000000" stroke-miterlimit="10" x1="75.49" y1="2419.58" x2="47" y2="2419.58"/>
			<line fill="none" stroke="#000000" stroke-miterlimit="10" x1="75.49" y1="2412.4" x2="55.01" y2="2412.4"/>
			<line fill="none" stroke="#000000" stroke-miterlimit="10" x1="75.49" y1="2405.21" x2="47" y2="2405.21"/>
			<line fill="none" stroke="#000000" stroke-miterlimit="10" x1="75.49" y1="2398.03" x2="55.01" y2="2398.03"/>
			<line fill="none" stroke="#000000" stroke-miterlimit="10" x1="75.49" y1="2390.85" x2="35.5" y2="2390.85"/>
			<line fill="none" stroke="#000000" stroke-miterlimit="10" x1="75.49" y1="2383.67" x2="55.01" y2="2383.67"/>
			<line fill="none" stroke="#000000" stroke-miterlimit="10" x1="75.49" y1="2376.48" x2="47" y2="2376.48"/>
			<line fill="none" stroke="#000000" stroke-miterlimit="10" x1="75.49" y1="2369.3" x2="55.01" y2="2369.3"/>
			<line fill="none" stroke="#000000" stroke-miterlimit="10" x1="75.49" y1="2362.12" x2="47" y2="2362.12"/>
			<line fill="none" stroke="#000000" stroke-miterlimit="10" x1="75.49" y1="2354.93" x2="55.37" y2="2354.93"/>
			<line fill="none" stroke="#000000" stroke-miterlimit="10" x1="75.49" y1="2347.75" x2="47" y2="2347.75"/>
			<line fill="none" stroke="#000000" stroke-miterlimit="10" x1="75.49" y1="2340.57" x2="55.01" y2="2340.57"/>
			<line fill="none" stroke="#000000" stroke-miterlimit="10" x1="75.49" y1="2333.39" x2="47" y2="2333.39"/>
			<line fill="none" stroke="#000000" stroke-miterlimit="10" x1="75.49" y1="2326.2" x2="55.01" y2="2326.2"/>
			<line fill="none" stroke="#000000" stroke-miterlimit="10" x1="75.49" y1="2319.02" x2="27.48" y2="2319.02"/>
		</g>
	</g>
	<g>
		<line fill="none" stroke="#000000" stroke-miterlimit="10" x1="74.78" y1="2319.04" x2="26.8" y2="2319.04"/>
		<line fill="none" stroke="#000000" stroke-miterlimit="10" x1="74.78" y1="2311.85" x2="54.3" y2="2311.85"/>
		<line fill="none" stroke="#000000" stroke-miterlimit="10" x1="74.78" y1="2304.67" x2="46.29" y2="2304.67"/>
		<line fill="none" stroke="#000000" stroke-miterlimit="10" x1="74.78" y1="2297.49" x2="54.3" y2="2297.49"/>
		<line fill="none" stroke="#000000" stroke-miterlimit="10" x1="74.78" y1="2290.3" x2="46.29" y2="2290.3"/>
		<line fill="none" stroke="#000000" stroke-miterlimit="10" x1="74.78" y1="2283.12" x2="53.86" y2="2283.12"/>
		<line fill="none" stroke="#000000" stroke-miterlimit="10" x1="74.78" y1="2275.93" x2="46.29" y2="2275.93"/>
		<line fill="none" stroke="#000000" stroke-miterlimit="10" x1="74.78" y1="2268.75" x2="54.3" y2="2268.75"/>
		<line fill="none" stroke="#000000" stroke-miterlimit="10" x1="74.78" y1="2261.57" x2="46.29" y2="2261.57"/>
		<line fill="none" stroke="#000000" stroke-miterlimit="10" x1="74.78" y1="2254.39" x2="54.3" y2="2254.39"/>
		<line fill="none" stroke="#000000" stroke-miterlimit="10" x1="74.78" y1="2247.21" x2="34.79" y2="2247.21"/>
		<line fill="none" stroke="#000000" stroke-miterlimit="10" x1="74.78" y1="2240.02" x2="54.3" y2="2240.02"/>
		<line fill="none" stroke="#000000" stroke-miterlimit="10" x1="74.78" y1="2232.84" x2="46.29" y2="2232.84"/>
		<line fill="none" stroke="#000000" stroke-miterlimit="10" x1="74.78" y1="2225.66" x2="54.3" y2="2225.66"/>
		<line fill="none" stroke="#000000" stroke-miterlimit="10" x1="74.78" y1="2218.47" x2="46.29" y2="2218.47"/>
		<line fill="none" stroke="#000000" stroke-miterlimit="10" x1="74.78" y1="2211.29" x2="54.66" y2="2211.29"/>
		<line fill="none" stroke="#000000" stroke-miterlimit="10" x1="74.78" y1="2204.11" x2="46.29" y2="2204.11"/>
		<line fill="none" stroke="#000000" stroke-miterlimit="10" x1="74.78" y1="2196.93" x2="54.3" y2="2196.93"/>
		<line fill="none" stroke="#000000" stroke-miterlimit="10" x1="74.78" y1="2189.74" x2="46.29" y2="2189.74"/>
		<line fill="none" stroke="#000000" stroke-miterlimit="10" x1="74.78" y1="2182.56" x2="54.3" y2="2182.56"/>
		<line fill="none" stroke="#000000" stroke-miterlimit="10" x1="74.78" y1="2175.38" x2="26.77" y2="2175.38"/>
		<g>
			<line fill="none" stroke="#000000" stroke-miterlimit="10" x1="74.82" y1="2168.18" x2="54.34" y2="2168.18"/>
			<line fill="none" stroke="#000000" stroke-miterlimit="10" x1="74.82" y1="2161" x2="46.33" y2="2161"/>
			<line fill="none" stroke="#000000" stroke-miterlimit="10" x1="74.82" y1="2153.82" x2="54.34" y2="2153.82"/>
			<line fill="none" stroke="#000000" stroke-miterlimit="10" x1="74.82" y1="2146.63" x2="46.33" y2="2146.63"/>
			<line fill="none" stroke="#000000" stroke-miterlimit="10" x1="74.82" y1="2139.45" x2="53.89" y2="2139.45"/>
			<line fill="none" stroke="#000000" stroke-miterlimit="10" x1="74.82" y1="2132.26" x2="46.33" y2="2132.26"/>
			<line fill="none" stroke="#000000" stroke-miterlimit="10" x1="74.82" y1="2125.08" x2="54.34" y2="2125.08"/>
			<line fill="none" stroke="#000000" stroke-miterlimit="10" x1="74.82" y1="2117.9" x2="46.33" y2="2117.9"/>
			<line fill="none" stroke="#000000" stroke-miterlimit="10" x1="74.82" y1="2110.72" x2="54.34" y2="2110.72"/>
			<line fill="none" stroke="#000000" stroke-miterlimit="10" x1="74.82" y1="2103.54" x2="34.82" y2="2103.54"/>
			<line fill="none" stroke="#000000" stroke-miterlimit="10" x1="74.82" y1="2096.35" x2="54.34" y2="2096.35"/>
			<line fill="none" stroke="#000000" stroke-miterlimit="10" x1="74.82" y1="2089.17" x2="46.33" y2="2089.17"/>
			<line fill="none" stroke="#000000" stroke-miterlimit="10" x1="74.82" y1="2081.99" x2="54.34" y2="2081.99"/>
			<line fill="none" stroke="#000000" stroke-miterlimit="10" x1="74.82" y1="2074.81" x2="46.33" y2="2074.81"/>
			<line fill="none" stroke="#000000" stroke-miterlimit="10" x1="74.82" y1="2067.62" x2="54.7" y2="2067.62"/>
			<line fill="none" stroke="#000000" stroke-miterlimit="10" x1="74.82" y1="2060.44" x2="46.33" y2="2060.44"/>
			<line fill="none" stroke="#000000" stroke-miterlimit="10" x1="74.82" y1="2053.26" x2="54.34" y2="2053.26"/>
			<line fill="none" stroke="#000000" stroke-miterlimit="10" x1="74.82" y1="2046.07" x2="46.33" y2="2046.07"/>
			<line fill="none" stroke="#000000" stroke-miterlimit="10" x1="74.82" y1="2038.89" x2="54.34" y2="2038.89"/>
			<line fill="none" stroke="#000000" stroke-miterlimit="10" x1="74.82" y1="2031.71" x2="26.81" y2="2031.71"/>
		</g>
		<g>
			<line fill="none" stroke="#000000" stroke-miterlimit="10" x1="74.79" y1="2024.52" x2="54.31" y2="2024.52"/>
			<line fill="none" stroke="#000000" stroke-miterlimit="10" x1="74.79" y1="2017.34" x2="46.3" y2="2017.34"/>
			<line fill="none" stroke="#000000" stroke-miterlimit="10" x1="74.79" y1="2010.16" x2="54.31" y2="2010.16"/>
			<line fill="none" stroke="#000000" stroke-miterlimit="10" x1="74.79" y1="2002.97" x2="46.3" y2="2002.97"/>
			<line fill="none" stroke="#000000" stroke-miterlimit="10" x1="74.79" y1="1995.79" x2="53.87" y2="1995.79"/>
			<line fill="none" stroke="#000000" stroke-miterlimit="10" x1="74.79" y1="1988.61" x2="46.3" y2="1988.61"/>
			<line fill="none" stroke="#000000" stroke-miterlimit="10" x1="74.79" y1="1981.42" x2="54.31" y2="1981.42"/>
			<line fill="none" stroke="#000000" stroke-miterlimit="10" x1="74.79" y1="1974.24" x2="46.3" y2="1974.24"/>
			<line fill="none" stroke="#000000" stroke-miterlimit="10" x1="74.79" y1="1967.06" x2="54.31" y2="1967.06"/>
			<line fill="none" stroke="#000000" stroke-miterlimit="10" x1="74.79" y1="1959.88" x2="34.79" y2="1959.88"/>
			<line fill="none" stroke="#000000" stroke-miterlimit="10" x1="74.79" y1="1952.69" x2="54.31" y2="1952.69"/>
			<line fill="none" stroke="#000000" stroke-miterlimit="10" x1="74.79" y1="1945.51" x2="46.3" y2="1945.51"/>
			<line fill="none" stroke="#000000" stroke-miterlimit="10" x1="74.79" y1="1938.33" x2="54.31" y2="1938.33"/>
			<line fill="none" stroke="#000000" stroke-miterlimit="10" x1="74.79" y1="1931.15" x2="46.3" y2="1931.15"/>
			<line fill="none" stroke="#000000" stroke-miterlimit="10" x1="74.79" y1="1923.96" x2="54.67" y2="1923.96"/>
			<line fill="none" stroke="#000000" stroke-miterlimit="10" x1="74.79" y1="1916.78" x2="46.3" y2="1916.78"/>
			<line fill="none" stroke="#000000" stroke-miterlimit="10" x1="74.79" y1="1909.6" x2="54.31" y2="1909.6"/>
			<line fill="none" stroke="#000000" stroke-miterlimit="10" x1="74.79" y1="1902.41" x2="46.3" y2="1902.41"/>
			<line fill="none" stroke="#000000" stroke-miterlimit="10" x1="74.79" y1="1895.23" x2="54.31" y2="1895.23"/>
			<line fill="none" stroke="#000000" stroke-miterlimit="10" x1="74.79" y1="1888.05" x2="26.78" y2="1888.05"/>
			<g>
				<line fill="none" stroke="#000000" stroke-miterlimit="10" x1="74.83" y1="1880.85" x2="54.35" y2="1880.85"/>
				<line fill="none" stroke="#000000" stroke-miterlimit="10" x1="74.83" y1="1873.67" x2="46.33" y2="1873.67"/>
				<line fill="none" stroke="#000000" stroke-miterlimit="10" x1="74.83" y1="1866.49" x2="54.35" y2="1866.49"/>
				<line fill="none" stroke="#000000" stroke-miterlimit="10" x1="74.83" y1="1859.3" x2="46.33" y2="1859.3"/>
				<line fill="none" stroke="#000000" stroke-miterlimit="10" x1="74.83" y1="1852.12" x2="53.9" y2="1852.12"/>
				<line fill="none" stroke="#000000" stroke-miterlimit="10" x1="74.83" y1="1844.94" x2="46.33" y2="1844.94"/>
				<line fill="none" stroke="#000000" stroke-miterlimit="10" x1="74.83" y1="1837.75" x2="54.35" y2="1837.75"/>
				<line fill="none" stroke="#000000" stroke-miterlimit="10" x1="74.83" y1="1830.57" x2="46.33" y2="1830.57"/>
				<line fill="none" stroke="#000000" stroke-miterlimit="10" x1="74.83" y1="1823.39" x2="54.35" y2="1823.39"/>
				<line fill="none" stroke="#000000" stroke-miterlimit="10" x1="74.83" y1="1816.21" x2="34.83" y2="1816.21"/>
				<line fill="none" stroke="#000000" stroke-miterlimit="10" x1="74.83" y1="1809.02" x2="54.35" y2="1809.02"/>
				<line fill="none" stroke="#000000" stroke-miterlimit="10" x1="74.83" y1="1801.84" x2="46.33" y2="1801.84"/>
				<line fill="none" stroke="#000000" stroke-miterlimit="10" x1="74.83" y1="1794.66" x2="54.35" y2="1794.66"/>
				<line fill="none" stroke="#000000" stroke-miterlimit="10" x1="74.83" y1="1787.48" x2="46.33" y2="1787.48"/>
				<line fill="none" stroke="#000000" stroke-miterlimit="10" x1="74.83" y1="1780.29" x2="54.7" y2="1780.29"/>
				<line fill="none" stroke="#000000" stroke-miterlimit="10" x1="74.83" y1="1773.11" x2="46.33" y2="1773.11"/>
				<line fill="none" stroke="#000000" stroke-miterlimit="10" x1="74.83" y1="1765.93" x2="54.35" y2="1765.93"/>
				<line fill="none" stroke="#000000" stroke-miterlimit="10" x1="74.83" y1="1758.74" x2="46.33" y2="1758.74"/>
				<line fill="none" stroke="#000000" stroke-miterlimit="10" x1="74.83" y1="1751.56" x2="54.35" y2="1751.56"/>
				<line fill="none" stroke="#000000" stroke-miterlimit="10" x1="74.83" y1="1744.38" x2="26.81" y2="1744.38"/>
			</g>
		</g>
	</g>
	<g>
		<line fill="none" stroke="#000000" stroke-miterlimit="10" x1="74.81" y1="1737.19" x2="54.33" y2="1737.19"/>
		<line fill="none" stroke="#000000" stroke-miterlimit="10" x1="74.81" y1="1730.01" x2="46.32" y2="1730.01"/>
		<line fill="none" stroke="#000000" stroke-miterlimit="10" x1="74.81" y1="1722.83" x2="54.33" y2="1722.83"/>
		<line fill="none" stroke="#000000" stroke-miterlimit="10" x1="74.81" y1="1715.65" x2="46.32" y2="1715.65"/>
		<line fill="none" stroke="#000000" stroke-miterlimit="10" x1="74.81" y1="1708.46" x2="53.89" y2="1708.46"/>
		<line fill="none" stroke="#000000" stroke-miterlimit="10" x1="74.81" y1="1701.28" x2="46.32" y2="1701.28"/>
		<line fill="none" stroke="#000000" stroke-miterlimit="10" x1="74.81" y1="1694.1" x2="54.33" y2="1694.1"/>
		<line fill="none" stroke="#000000" stroke-miterlimit="10" x1="74.81" y1="1686.91" x2="46.32" y2="1686.91"/>
		<line fill="none" stroke="#000000" stroke-miterlimit="10" x1="74.81" y1="1679.73" x2="54.33" y2="1679.73"/>
		<line fill="none" stroke="#000000" stroke-miterlimit="10" x1="74.81" y1="1672.55" x2="34.82" y2="1672.55"/>
		<line fill="none" stroke="#000000" stroke-miterlimit="10" x1="74.81" y1="1665.37" x2="54.33" y2="1665.37"/>
		<line fill="none" stroke="#000000" stroke-miterlimit="10" x1="74.81" y1="1658.18" x2="46.32" y2="1658.18"/>
		<line fill="none" stroke="#000000" stroke-miterlimit="10" x1="74.81" y1="1651" x2="54.33" y2="1651"/>
		<line fill="none" stroke="#000000" stroke-miterlimit="10" x1="74.81" y1="1643.82" x2="46.32" y2="1643.82"/>
		<line fill="none" stroke="#000000" stroke-miterlimit="10" x1="74.81" y1="1636.63" x2="54.69" y2="1636.63"/>
		<line fill="none" stroke="#000000" stroke-miterlimit="10" x1="74.81" y1="1629.45" x2="46.32" y2="1629.45"/>
		<line fill="none" stroke="#000000" stroke-miterlimit="10" x1="74.81" y1="1622.27" x2="54.33" y2="1622.27"/>
		<line fill="none" stroke="#000000" stroke-miterlimit="10" x1="74.81" y1="1615.09" x2="46.32" y2="1615.09"/>
		<line fill="none" stroke="#000000" stroke-miterlimit="10" x1="74.81" y1="1607.9" x2="54.33" y2="1607.9"/>
		<line fill="none" stroke="#000000" stroke-miterlimit="10" x1="74.81" y1="1600.72" x2="26.8" y2="1600.72"/>
		<g>
			<line fill="none" stroke="#000000" stroke-miterlimit="10" x1="74.85" y1="1593.52" x2="54.37" y2="1593.52"/>
			<line fill="none" stroke="#000000" stroke-miterlimit="10" x1="74.85" y1="1586.34" x2="46.35" y2="1586.34"/>
			<line fill="none" stroke="#000000" stroke-miterlimit="10" x1="74.85" y1="1579.16" x2="54.37" y2="1579.16"/>
			<line fill="none" stroke="#000000" stroke-miterlimit="10" x1="74.85" y1="1571.98" x2="46.35" y2="1571.98"/>
			<line fill="none" stroke="#000000" stroke-miterlimit="10" x1="74.85" y1="1564.79" x2="53.92" y2="1564.79"/>
			<line fill="none" stroke="#000000" stroke-miterlimit="10" x1="74.85" y1="1557.61" x2="46.35" y2="1557.61"/>
			<line fill="none" stroke="#000000" stroke-miterlimit="10" x1="74.85" y1="1550.43" x2="54.37" y2="1550.43"/>
			<line fill="none" stroke="#000000" stroke-miterlimit="10" x1="74.85" y1="1543.24" x2="46.35" y2="1543.24"/>
			<line fill="none" stroke="#000000" stroke-miterlimit="10" x1="74.85" y1="1536.06" x2="54.37" y2="1536.06"/>
			<line fill="none" stroke="#000000" stroke-miterlimit="10" x1="74.85" y1="1528.88" x2="34.85" y2="1528.88"/>
			<line fill="none" stroke="#000000" stroke-miterlimit="10" x1="74.85" y1="1521.7" x2="54.37" y2="1521.7"/>
			<line fill="none" stroke="#000000" stroke-miterlimit="10" x1="74.85" y1="1514.51" x2="46.35" y2="1514.51"/>
			<line fill="none" stroke="#000000" stroke-miterlimit="10" x1="74.85" y1="1507.33" x2="54.37" y2="1507.33"/>
			<line fill="none" stroke="#000000" stroke-miterlimit="10" x1="74.85" y1="1500.15" x2="46.35" y2="1500.15"/>
			<line fill="none" stroke="#000000" stroke-miterlimit="10" x1="74.85" y1="1492.96" x2="54.72" y2="1492.96"/>
			<line fill="none" stroke="#000000" stroke-miterlimit="10" x1="74.85" y1="1485.78" x2="46.35" y2="1485.78"/>
			<line fill="none" stroke="#000000" stroke-miterlimit="10" x1="74.85" y1="1478.6" x2="54.37" y2="1478.6"/>
			<line fill="none" stroke="#000000" stroke-miterlimit="10" x1="74.85" y1="1471.42" x2="46.35" y2="1471.42"/>
			<line fill="none" stroke="#000000" stroke-miterlimit="10" x1="74.85" y1="1464.23" x2="54.37" y2="1464.23"/>
			<line fill="none" stroke="#000000" stroke-miterlimit="10" x1="74.85" y1="1457.05" x2="26.84" y2="1457.05"/>
		</g>
		<g>
			<line fill="none" stroke="#000000" stroke-miterlimit="10" x1="74.82" y1="1449.86" x2="54.34" y2="1449.86"/>
			<line fill="none" stroke="#000000" stroke-miterlimit="10" x1="74.82" y1="1442.68" x2="46.33" y2="1442.68"/>
			<line fill="none" stroke="#000000" stroke-miterlimit="10" x1="74.82" y1="1435.5" x2="54.34" y2="1435.5"/>
			<line fill="none" stroke="#000000" stroke-miterlimit="10" x1="74.82" y1="1428.32" x2="46.33" y2="1428.32"/>
			<line fill="none" stroke="#000000" stroke-miterlimit="10" x1="74.82" y1="1421.13" x2="53.9" y2="1421.13"/>
			<line fill="none" stroke="#000000" stroke-miterlimit="10" x1="74.82" y1="1413.95" x2="46.33" y2="1413.95"/>
			<line fill="none" stroke="#000000" stroke-miterlimit="10" x1="74.82" y1="1406.77" x2="54.34" y2="1406.77"/>
			<line fill="none" stroke="#000000" stroke-miterlimit="10" x1="74.82" y1="1399.58" x2="46.33" y2="1399.58"/>
			<line fill="none" stroke="#000000" stroke-miterlimit="10" x1="74.82" y1="1392.4" x2="54.34" y2="1392.4"/>
			<line fill="none" stroke="#000000" stroke-miterlimit="10" x1="74.82" y1="1385.22" x2="34.82" y2="1385.22"/>
			<line fill="none" stroke="#000000" stroke-miterlimit="10" x1="74.82" y1="1378.04" x2="54.34" y2="1378.04"/>
			<line fill="none" stroke="#000000" stroke-miterlimit="10" x1="74.82" y1="1370.85" x2="46.33" y2="1370.85"/>
			<line fill="none" stroke="#000000" stroke-miterlimit="10" x1="74.82" y1="1363.67" x2="54.34" y2="1363.67"/>
			<line fill="none" stroke="#000000" stroke-miterlimit="10" x1="74.82" y1="1356.49" x2="46.33" y2="1356.49"/>
			<line fill="none" stroke="#000000" stroke-miterlimit="10" x1="74.82" y1="1349.3" x2="54.7" y2="1349.3"/>
			<line fill="none" stroke="#000000" stroke-miterlimit="10" x1="74.82" y1="1342.12" x2="46.33" y2="1342.12"/>
			<line fill="none" stroke="#000000" stroke-miterlimit="10" x1="74.82" y1="1334.94" x2="54.34" y2="1334.94"/>
			<line fill="none" stroke="#000000" stroke-miterlimit="10" x1="74.82" y1="1327.76" x2="46.33" y2="1327.76"/>
			<line fill="none" stroke="#000000" stroke-miterlimit="10" x1="74.82" y1="1320.57" x2="54.34" y2="1320.57"/>
			<line fill="none" stroke="#000000" stroke-miterlimit="10" x1="74.82" y1="1313.39" x2="26.81" y2="1313.39"/>
			<g>
				<line fill="none" stroke="#000000" stroke-miterlimit="10" x1="74.86" y1="1306.19" x2="54.38" y2="1306.19"/>
				<line fill="none" stroke="#000000" stroke-miterlimit="10" x1="74.86" y1="1299.01" x2="46.36" y2="1299.01"/>
				<line fill="none" stroke="#000000" stroke-miterlimit="10" x1="74.86" y1="1291.83" x2="54.38" y2="1291.83"/>
				<line fill="none" stroke="#000000" stroke-miterlimit="10" x1="74.86" y1="1284.65" x2="46.36" y2="1284.65"/>
				<line fill="none" stroke="#000000" stroke-miterlimit="10" x1="74.86" y1="1277.46" x2="53.93" y2="1277.46"/>
				<line fill="none" stroke="#000000" stroke-miterlimit="10" x1="74.86" y1="1270.28" x2="46.36" y2="1270.28"/>
				<line fill="none" stroke="#000000" stroke-miterlimit="10" x1="74.86" y1="1263.1" x2="54.38" y2="1263.1"/>
				<line fill="none" stroke="#000000" stroke-miterlimit="10" x1="74.86" y1="1255.91" x2="46.36" y2="1255.91"/>
				<line fill="none" stroke="#000000" stroke-miterlimit="10" x1="74.86" y1="1248.73" x2="54.38" y2="1248.73"/>
				<line fill="none" stroke="#000000" stroke-miterlimit="10" x1="74.86" y1="1241.55" x2="34.86" y2="1241.55"/>
				<line fill="none" stroke="#000000" stroke-miterlimit="10" x1="74.86" y1="1234.37" x2="54.38" y2="1234.37"/>
				<line fill="none" stroke="#000000" stroke-miterlimit="10" x1="74.86" y1="1227.18" x2="46.36" y2="1227.18"/>
				<line fill="none" stroke="#000000" stroke-miterlimit="10" x1="74.86" y1="1220" x2="54.38" y2="1220"/>
				<line fill="none" stroke="#000000" stroke-miterlimit="10" x1="74.86" y1="1212.82" x2="46.36" y2="1212.82"/>
				<line fill="none" stroke="#000000" stroke-miterlimit="10" x1="74.86" y1="1205.63" x2="54.73" y2="1205.63"/>
				<line fill="none" stroke="#000000" stroke-miterlimit="10" x1="74.86" y1="1198.45" x2="46.36" y2="1198.45"/>
				<line fill="none" stroke="#000000" stroke-miterlimit="10" x1="74.86" y1="1191.27" x2="54.38" y2="1191.27"/>
				<line fill="none" stroke="#000000" stroke-miterlimit="10" x1="74.86" y1="1184.09" x2="46.36" y2="1184.09"/>
				<line fill="none" stroke="#000000" stroke-miterlimit="10" x1="74.86" y1="1176.9" x2="54.38" y2="1176.9"/>
				<line fill="none" stroke="#000000" stroke-miterlimit="10" x1="74.86" y1="1169.72" x2="26.84" y2="1169.72"/>
			</g>
		</g>
		<g>
			<line fill="none" stroke="#000000" stroke-miterlimit="10" x1="74.15" y1="1169.74" x2="26.17" y2="1169.74"/>
			<line fill="none" stroke="#000000" stroke-miterlimit="10" x1="74.15" y1="1162.55" x2="53.67" y2="1162.55"/>
			<line fill="none" stroke="#000000" stroke-miterlimit="10" x1="74.15" y1="1155.37" x2="45.65" y2="1155.37"/>
			<line fill="none" stroke="#000000" stroke-miterlimit="10" x1="74.15" y1="1148.19" x2="53.67" y2="1148.19"/>
			<line fill="none" stroke="#000000" stroke-miterlimit="10" x1="74.15" y1="1141" x2="45.65" y2="1141"/>
			<line fill="none" stroke="#000000" stroke-miterlimit="10" x1="74.15" y1="1133.82" x2="53.22" y2="1133.82"/>
			<line fill="none" stroke="#000000" stroke-miterlimit="10" x1="74.15" y1="1126.64" x2="45.65" y2="1126.64"/>
			<line fill="none" stroke="#000000" stroke-miterlimit="10" x1="74.15" y1="1119.45" x2="53.67" y2="1119.45"/>
			<line fill="none" stroke="#000000" stroke-miterlimit="10" x1="74.15" y1="1112.27" x2="45.65" y2="1112.27"/>
			<line fill="none" stroke="#000000" stroke-miterlimit="10" x1="74.15" y1="1105.09" x2="53.67" y2="1105.09"/>
			<line fill="none" stroke="#000000" stroke-miterlimit="10" x1="74.15" y1="1097.91" x2="34.15" y2="1097.91"/>
			<line fill="none" stroke="#000000" stroke-miterlimit="10" x1="74.15" y1="1090.72" x2="53.67" y2="1090.72"/>
			<line fill="none" stroke="#000000" stroke-miterlimit="10" x1="74.15" y1="1083.54" x2="45.65" y2="1083.54"/>
			<line fill="none" stroke="#000000" stroke-miterlimit="10" x1="74.15" y1="1076.36" x2="53.67" y2="1076.36"/>
			<line fill="none" stroke="#000000" stroke-miterlimit="10" x1="74.15" y1="1069.18" x2="45.65" y2="1069.18"/>
			<line fill="none" stroke="#000000" stroke-miterlimit="10" x1="74.15" y1="1061.99" x2="54.02" y2="1061.99"/>
			<line fill="none" stroke="#000000" stroke-miterlimit="10" x1="74.15" y1="1054.81" x2="45.65" y2="1054.81"/>
			<line fill="none" stroke="#000000" stroke-miterlimit="10" x1="74.15" y1="1047.63" x2="53.67" y2="1047.63"/>
			<line fill="none" stroke="#000000" stroke-miterlimit="10" x1="74.15" y1="1040.44" x2="45.65" y2="1040.44"/>
			<line fill="none" stroke="#000000" stroke-miterlimit="10" x1="74.15" y1="1033.26" x2="53.67" y2="1033.26"/>
			<line fill="none" stroke="#000000" stroke-miterlimit="10" x1="74.15" y1="1026.08" x2="26.13" y2="1026.08"/>
			<g>
				<line fill="none" stroke="#000000" stroke-miterlimit="10" x1="74.18" y1="1018.88" x2="53.7" y2="1018.88"/>
				<line fill="none" stroke="#000000" stroke-miterlimit="10" x1="74.18" y1="1011.7" x2="45.69" y2="1011.7"/>
				<line fill="none" stroke="#000000" stroke-miterlimit="10" x1="74.18" y1="1004.52" x2="53.7" y2="1004.52"/>
				<line fill="none" stroke="#000000" stroke-miterlimit="10" x1="74.18" y1="997.34" x2="45.69" y2="997.34"/>
				<line fill="none" stroke="#000000" stroke-miterlimit="10" x1="74.18" y1="990.15" x2="53.26" y2="990.15"/>
				<line fill="none" stroke="#000000" stroke-miterlimit="10" x1="74.18" y1="982.97" x2="45.69" y2="982.97"/>
				<line fill="none" stroke="#000000" stroke-miterlimit="10" x1="74.18" y1="975.78" x2="53.7" y2="975.78"/>
				<line fill="none" stroke="#000000" stroke-miterlimit="10" x1="74.18" y1="968.6" x2="45.69" y2="968.6"/>
				<line fill="none" stroke="#000000" stroke-miterlimit="10" x1="74.18" y1="961.42" x2="53.7" y2="961.42"/>
				<line fill="none" stroke="#000000" stroke-miterlimit="10" x1="74.18" y1="954.24" x2="34.18" y2="954.24"/>
				<line fill="none" stroke="#000000" stroke-miterlimit="10" x1="74.18" y1="947.05" x2="53.7" y2="947.05"/>
				<line fill="none" stroke="#000000" stroke-miterlimit="10" x1="74.18" y1="939.87" x2="45.69" y2="939.87"/>
				<line fill="none" stroke="#000000" stroke-miterlimit="10" x1="74.18" y1="932.69" x2="53.7" y2="932.69"/>
				<line fill="none" stroke="#000000" stroke-miterlimit="10" x1="74.18" y1="925.51" x2="45.69" y2="925.51"/>
				<line fill="none" stroke="#000000" stroke-miterlimit="10" x1="74.18" y1="918.32" x2="54.06" y2="918.32"/>
				<line fill="none" stroke="#000000" stroke-miterlimit="10" x1="74.18" y1="911.14" x2="45.69" y2="911.14"/>
				<line fill="none" stroke="#000000" stroke-miterlimit="10" x1="74.18" y1="903.96" x2="53.7" y2="903.96"/>
				<line fill="none" stroke="#000000" stroke-miterlimit="10" x1="74.18" y1="896.77" x2="45.69" y2="896.77"/>
				<line fill="none" stroke="#000000" stroke-miterlimit="10" x1="74.18" y1="889.59" x2="53.7" y2="889.59"/>
				<line fill="none" stroke="#000000" stroke-miterlimit="10" x1="74.18" y1="882.41" x2="26.17" y2="882.41"/>
			</g>
			<g>
				<line fill="none" stroke="#000000" stroke-miterlimit="10" x1="74.15" y1="875.22" x2="53.67" y2="875.22"/>
				<line fill="none" stroke="#000000" stroke-miterlimit="10" x1="74.15" y1="868.04" x2="45.66" y2="868.04"/>
				<line fill="none" stroke="#000000" stroke-miterlimit="10" x1="74.15" y1="860.86" x2="53.67" y2="860.86"/>
				<line fill="none" stroke="#000000" stroke-miterlimit="10" x1="74.15" y1="853.68" x2="45.66" y2="853.68"/>
				<line fill="none" stroke="#000000" stroke-miterlimit="10" x1="74.15" y1="846.49" x2="53.23" y2="846.49"/>
				<line fill="none" stroke="#000000" stroke-miterlimit="10" x1="74.15" y1="839.31" x2="45.66" y2="839.31"/>
				<line fill="none" stroke="#000000" stroke-miterlimit="10" x1="74.15" y1="832.12" x2="53.67" y2="832.12"/>
				<line fill="none" stroke="#000000" stroke-miterlimit="10" x1="74.15" y1="824.94" x2="45.66" y2="824.94"/>
				<line fill="none" stroke="#000000" stroke-miterlimit="10" x1="74.15" y1="817.76" x2="53.67" y2="817.76"/>
				<line fill="none" stroke="#000000" stroke-miterlimit="10" x1="74.15" y1="810.58" x2="34.16" y2="810.58"/>
				<line fill="none" stroke="#000000" stroke-miterlimit="10" x1="74.15" y1="803.39" x2="53.67" y2="803.39"/>
				<line fill="none" stroke="#000000" stroke-miterlimit="10" x1="74.15" y1="796.21" x2="45.66" y2="796.21"/>
				<line fill="none" stroke="#000000" stroke-miterlimit="10" x1="74.15" y1="789.03" x2="53.67" y2="789.03"/>
				<line fill="none" stroke="#000000" stroke-miterlimit="10" x1="74.15" y1="781.85" x2="45.66" y2="781.85"/>
				<line fill="none" stroke="#000000" stroke-miterlimit="10" x1="74.15" y1="774.66" x2="54.03" y2="774.66"/>
				<line fill="none" stroke="#000000" stroke-miterlimit="10" x1="74.15" y1="767.48" x2="45.66" y2="767.48"/>
				<line fill="none" stroke="#000000" stroke-miterlimit="10" x1="74.15" y1="760.3" x2="53.67" y2="760.3"/>
				<line fill="none" stroke="#000000" stroke-miterlimit="10" x1="74.15" y1="753.11" x2="45.66" y2="753.11"/>
				<line fill="none" stroke="#000000" stroke-miterlimit="10" x1="74.15" y1="745.93" x2="53.67" y2="745.93"/>
				<line fill="none" stroke="#000000" stroke-miterlimit="10" x1="74.15" y1="738.75" x2="26.14" y2="738.75"/>
			</g>
		</g>
		<g>
			<line fill="none" stroke="#000000" stroke-miterlimit="10" x1="74.15" y1="731.55" x2="53.67" y2="731.55"/>
			<line fill="none" stroke="#000000" stroke-miterlimit="10" x1="74.15" y1="724.37" x2="45.65" y2="724.37"/>
			<line fill="none" stroke="#000000" stroke-miterlimit="10" x1="74.15" y1="717.19" x2="53.67" y2="717.19"/>
			<line fill="none" stroke="#000000" stroke-miterlimit="10" x1="74.15" y1="710" x2="45.65" y2="710"/>
			<line fill="none" stroke="#000000" stroke-miterlimit="10" x1="74.15" y1="702.82" x2="53.22" y2="702.82"/>
			<line fill="none" stroke="#000000" stroke-miterlimit="10" x1="74.15" y1="695.64" x2="45.65" y2="695.64"/>
			<line fill="none" stroke="#000000" stroke-miterlimit="10" x1="74.15" y1="688.45" x2="53.67" y2="688.45"/>
			<line fill="none" stroke="#000000" stroke-miterlimit="10" x1="74.15" y1="681.27" x2="45.65" y2="681.27"/>
			<line fill="none" stroke="#000000" stroke-miterlimit="10" x1="74.15" y1="674.09" x2="53.67" y2="674.09"/>
			<line fill="none" stroke="#000000" stroke-miterlimit="10" x1="74.15" y1="666.91" x2="34.15" y2="666.91"/>
			<line fill="none" stroke="#000000" stroke-miterlimit="10" x1="74.15" y1="659.72" x2="53.67" y2="659.72"/>
			<line fill="none" stroke="#000000" stroke-miterlimit="10" x1="74.15" y1="652.54" x2="45.65" y2="652.54"/>
			<line fill="none" stroke="#000000" stroke-miterlimit="10" x1="74.15" y1="645.36" x2="53.67" y2="645.36"/>
			<line fill="none" stroke="#000000" stroke-miterlimit="10" x1="74.15" y1="638.18" x2="45.65" y2="638.18"/>
			<line fill="none" stroke="#000000" stroke-miterlimit="10" x1="74.15" y1="630.99" x2="54.02" y2="630.99"/>
			<line fill="none" stroke="#000000" stroke-miterlimit="10" x1="74.15" y1="623.81" x2="45.65" y2="623.81"/>
			<line fill="none" stroke="#000000" stroke-miterlimit="10" x1="74.15" y1="616.63" x2="53.67" y2="616.63"/>
			<line fill="none" stroke="#000000" stroke-miterlimit="10" x1="74.15" y1="609.44" x2="45.65" y2="609.44"/>
			<line fill="none" stroke="#000000" stroke-miterlimit="10" x1="74.15" y1="602.26" x2="53.67" y2="602.26"/>
			<line fill="none" stroke="#000000" stroke-miterlimit="10" x1="74.15" y1="595.08" x2="26.13" y2="595.08"/>
			<g>
				<line fill="none" stroke="#000000" stroke-miterlimit="10" x1="74.18" y1="587.88" x2="53.7" y2="587.88"/>
				<line fill="none" stroke="#000000" stroke-miterlimit="10" x1="74.18" y1="580.7" x2="45.69" y2="580.7"/>
				<line fill="none" stroke="#000000" stroke-miterlimit="10" x1="74.18" y1="573.52" x2="53.7" y2="573.52"/>
				<line fill="none" stroke="#000000" stroke-miterlimit="10" x1="74.18" y1="566.34" x2="45.69" y2="566.34"/>
				<line fill="none" stroke="#000000" stroke-miterlimit="10" x1="74.18" y1="559.15" x2="53.26" y2="559.15"/>
				<line fill="none" stroke="#000000" stroke-miterlimit="10" x1="74.18" y1="551.97" x2="45.69" y2="551.97"/>
				<line fill="none" stroke="#000000" stroke-miterlimit="10" x1="74.18" y1="544.78" x2="53.7" y2="544.78"/>
				<line fill="none" stroke="#000000" stroke-miterlimit="10" x1="74.18" y1="537.6" x2="45.69" y2="537.6"/>
				<line fill="none" stroke="#000000" stroke-miterlimit="10" x1="74.18" y1="530.42" x2="53.7" y2="530.42"/>
				<line fill="none" stroke="#000000" stroke-miterlimit="10" x1="74.18" y1="523.24" x2="34.18" y2="523.24"/>
				<line fill="none" stroke="#000000" stroke-miterlimit="10" x1="74.18" y1="516.05" x2="53.7" y2="516.05"/>
				<line fill="none" stroke="#000000" stroke-miterlimit="10" x1="74.18" y1="508.87" x2="45.69" y2="508.87"/>
				<line fill="none" stroke="#000000" stroke-miterlimit="10" x1="74.18" y1="501.69" x2="53.7" y2="501.69"/>
				<line fill="none" stroke="#000000" stroke-miterlimit="10" x1="74.18" y1="494.51" x2="45.69" y2="494.51"/>
				<line fill="none" stroke="#000000" stroke-miterlimit="10" x1="74.18" y1="487.32" x2="54.06" y2="487.32"/>
				<line fill="none" stroke="#000000" stroke-miterlimit="10" x1="74.18" y1="480.14" x2="45.69" y2="480.14"/>
				<line fill="none" stroke="#000000" stroke-miterlimit="10" x1="74.18" y1="472.96" x2="53.7" y2="472.96"/>
				<line fill="none" stroke="#000000" stroke-miterlimit="10" x1="74.18" y1="465.77" x2="45.69" y2="465.77"/>
				<line fill="none" stroke="#000000" stroke-miterlimit="10" x1="74.18" y1="458.59" x2="53.7" y2="458.59"/>
				<line fill="none" stroke="#000000" stroke-miterlimit="10" x1="74.18" y1="451.41" x2="26.17" y2="451.41"/>
			</g>
			<g>
				<line fill="none" stroke="#000000" stroke-miterlimit="10" x1="74.15" y1="444.22" x2="53.67" y2="444.22"/>
				<line fill="none" stroke="#000000" stroke-miterlimit="10" x1="74.15" y1="437.04" x2="45.66" y2="437.04"/>
				<line fill="none" stroke="#000000" stroke-miterlimit="10" x1="74.15" y1="429.86" x2="53.67" y2="429.86"/>
				<line fill="none" stroke="#000000" stroke-miterlimit="10" x1="74.15" y1="422.68" x2="45.66" y2="422.68"/>
				<line fill="none" stroke="#000000" stroke-miterlimit="10" x1="74.15" y1="415.49" x2="53.23" y2="415.49"/>
				<line fill="none" stroke="#000000" stroke-miterlimit="10" x1="74.15" y1="408.31" x2="45.66" y2="408.31"/>
				<line fill="none" stroke="#000000" stroke-miterlimit="10" x1="74.15" y1="401.12" x2="53.67" y2="401.12"/>
				<line fill="none" stroke="#000000" stroke-miterlimit="10" x1="74.15" y1="393.94" x2="45.66" y2="393.94"/>
				<line fill="none" stroke="#000000" stroke-miterlimit="10" x1="74.15" y1="386.76" x2="53.67" y2="386.76"/>
				<line fill="none" stroke="#000000" stroke-miterlimit="10" x1="74.15" y1="379.58" x2="34.16" y2="379.58"/>
				<line fill="none" stroke="#000000" stroke-miterlimit="10" x1="74.15" y1="372.39" x2="53.67" y2="372.39"/>
				<line fill="none" stroke="#000000" stroke-miterlimit="10" x1="74.15" y1="365.21" x2="45.66" y2="365.21"/>
				<line fill="none" stroke="#000000" stroke-miterlimit="10" x1="74.15" y1="358.03" x2="53.67" y2="358.03"/>
				<line fill="none" stroke="#000000" stroke-miterlimit="10" x1="74.15" y1="350.85" x2="45.66" y2="350.85"/>
				<line fill="none" stroke="#000000" stroke-miterlimit="10" x1="74.15" y1="343.66" x2="54.03" y2="343.66"/>
				<line fill="none" stroke="#000000" stroke-miterlimit="10" x1="74.15" y1="336.48" x2="45.66" y2="336.48"/>
				<line fill="none" stroke="#000000" stroke-miterlimit="10" x1="74.15" y1="329.3" x2="53.67" y2="329.3"/>
				<line fill="none" stroke="#000000" stroke-miterlimit="10" x1="74.15" y1="322.11" x2="45.66" y2="322.11"/>
				<line fill="none" stroke="#000000" stroke-miterlimit="10" x1="74.15" y1="314.93" x2="53.67" y2="314.93"/>
				<line fill="none" stroke="#000000" stroke-miterlimit="10" x1="74.15" y1="307.75" x2="26.14" y2="307.75"/>
			</g>
		</g>
		<g>
			<line fill="none" stroke="#000000" stroke-miterlimit="10" x1="74.15" y1="300.55" x2="53.67" y2="300.55"/>
			<line fill="none" stroke="#000000" stroke-miterlimit="10" x1="74.15" y1="293.37" x2="45.65" y2="293.37"/>
			<line fill="none" stroke="#000000" stroke-miterlimit="10" x1="74.15" y1="286.19" x2="53.67" y2="286.19"/>
			<line fill="none" stroke="#000000" stroke-miterlimit="10" x1="74.15" y1="279" x2="45.65" y2="279"/>
			<line fill="none" stroke="#000000" stroke-miterlimit="10" x1="74.15" y1="271.82" x2="53.22" y2="271.82"/>
			<line fill="none" stroke="#000000" stroke-miterlimit="10" x1="74.15" y1="264.64" x2="45.65" y2="264.64"/>
			<line fill="none" stroke="#000000" stroke-miterlimit="10" x1="74.15" y1="257.45" x2="53.67" y2="257.45"/>
			<line fill="none" stroke="#000000" stroke-miterlimit="10" x1="74.15" y1="250.27" x2="45.65" y2="250.27"/>
			<line fill="none" stroke="#000000" stroke-miterlimit="10" x1="74.15" y1="243.09" x2="53.67" y2="243.09"/>
			<line fill="none" stroke="#000000" stroke-miterlimit="10" x1="74.15" y1="235.91" x2="34.15" y2="235.91"/>
			<line fill="none" stroke="#000000" stroke-miterlimit="10" x1="74.15" y1="228.72" x2="53.67" y2="228.72"/>
			<line fill="none" stroke="#000000" stroke-miterlimit="10" x1="74.15" y1="221.54" x2="45.65" y2="221.54"/>
			<line fill="none" stroke="#000000" stroke-miterlimit="10" x1="74.15" y1="214.36" x2="53.67" y2="214.36"/>
			<line fill="none" stroke="#000000" stroke-miterlimit="10" x1="74.15" y1="207.18" x2="45.65" y2="207.18"/>
			<line fill="none" stroke="#000000" stroke-miterlimit="10" x1="74.15" y1="199.99" x2="54.02" y2="199.99"/>
			<line fill="none" stroke="#000000" stroke-miterlimit="10" x1="74.15" y1="192.81" x2="45.65" y2="192.81"/>
			<line fill="none" stroke="#000000" stroke-miterlimit="10" x1="74.15" y1="185.63" x2="53.67" y2="185.63"/>
			<line fill="none" stroke="#000000" stroke-miterlimit="10" x1="74.15" y1="178.44" x2="45.65" y2="178.44"/>
			<line fill="none" stroke="#000000" stroke-miterlimit="10" x1="74.15" y1="171.26" x2="53.67" y2="171.26"/>
			<line fill="none" stroke="#000000" stroke-miterlimit="10" x1="74.15" y1="164.08" x2="26.13" y2="164.08"/>
			<g>
				<line fill="none" stroke="#000000" stroke-miterlimit="10" x1="74.18" y1="156.88" x2="53.7" y2="156.88"/>
				<line fill="none" stroke="#000000" stroke-miterlimit="10" x1="74.18" y1="149.7" x2="45.69" y2="149.7"/>
				<line fill="none" stroke="#000000" stroke-miterlimit="10" x1="74.18" y1="142.52" x2="53.7" y2="142.52"/>
				<line fill="none" stroke="#000000" stroke-miterlimit="10" x1="74.18" y1="135.34" x2="45.69" y2="135.34"/>
				<line fill="none" stroke="#000000" stroke-miterlimit="10" x1="74.18" y1="128.15" x2="53.26" y2="128.15"/>
				<line fill="none" stroke="#000000" stroke-miterlimit="10" x1="74.18" y1="120.97" x2="45.69" y2="120.97"/>
				<line fill="none" stroke="#000000" stroke-miterlimit="10" x1="74.18" y1="113.78" x2="53.7" y2="113.78"/>
				<line fill="none" stroke="#000000" stroke-miterlimit="10" x1="74.18" y1="106.6" x2="45.69" y2="106.6"/>
				<line fill="none" stroke="#000000" stroke-miterlimit="10" x1="74.18" y1="99.42" x2="53.7" y2="99.42"/>
				<line fill="none" stroke="#000000" stroke-miterlimit="10" x1="74.18" y1="92.24" x2="34.18" y2="92.24"/>
				<line fill="none" stroke="#000000" stroke-miterlimit="10" x1="74.18" y1="85.05" x2="53.7" y2="85.05"/>
				<line fill="none" stroke="#000000" stroke-miterlimit="10" x1="74.18" y1="77.87" x2="45.69" y2="77.87"/>
				<line fill="none" stroke="#000000" stroke-miterlimit="10" x1="74.18" y1="70.69" x2="53.7" y2="70.69"/>
				<line fill="none" stroke="#000000" stroke-miterlimit="10" x1="74.18" y1="63.51" x2="45.69" y2="63.51"/>
				<line fill="none" stroke="#000000" stroke-miterlimit="10" x1="74.18" y1="56.32" x2="54.06" y2="56.32"/>
				<line fill="none" stroke="#000000" stroke-miterlimit="10" x1="74.18" y1="49.14" x2="45.69" y2="49.14"/>
				<line fill="none" stroke="#000000" stroke-miterlimit="10" x1="74.18" y1="41.96" x2="53.7" y2="41.96"/>
				<line fill="none" stroke="#000000" stroke-miterlimit="10" x1="74.18" y1="34.77" x2="45.69" y2="34.77"/>
				<line fill="none" stroke="#000000" stroke-miterlimit="10" x1="74.18" y1="27.59" x2="53.7" y2="27.59"/>
				<line fill="none" stroke="#000000" stroke-miterlimit="10" x1="74.18" y1="20.41" x2="26.17" y2="20.41"/>
			</g>
		</g>
	</g>
</g>
<text transform="matrix(1 0 0 1 14.4229 2899.2393)" fill="#010101" font-family="'ArialMT'" font-size="17.2069">0</text>
<text transform="matrix(1 0 0 1 14.4229 2755.2754)" fill="#010101" font-family="'ArialMT'" font-size="17.2069">1</text>
<text transform="matrix(1 0 0 1 14.4229 2612.458)" fill="#010101" font-family="'ArialMT'" font-size="17.2069">2</text>
<text transform="matrix(1 0 0 1 14.4229 2469.6416)" fill="#010101" font-family="'ArialMT'" font-size="17.2069">3</text>
<text transform="matrix(1 0 0 1 14.4229 2325.1035)" fill="#010101" font-family="'ArialMT'" font-size="17.2069">4</text>
<text transform="matrix(1 0 0 1 14.4229 2182.2295)" fill="#010101" font-family="'ArialMT'" font-size="17.2069">5</text>
<text transform="matrix(1 0 0 1 14.4229 2038.2646)" fill="#010101" font-family="'ArialMT'" font-size="17.2069">6</text>
<text transform="matrix(1 0 0 1 14.4229 1893.7266)" fill="#010101" font-family="'ArialMT'" font-size="17.2069">7</text>
<text transform="matrix(1 0 0 1 14.4229 1750.3359)" fill="#010101" font-family="'ArialMT'" font-size="17.2069">8</text>
<text transform="matrix(1 0 0 1 14.4229 1605.1816)" fill="#010101" font-family="'ArialMT'" font-size="17.2069">9</text>
<text transform="matrix(1 0 0 1 4.8535 1462.3643)" fill="#010101" font-family="'ArialMT'" font-size="17.2069">10</text>
<text transform="matrix(1 0 0 1 6.1299 1317.8262)" fill="#010101" font-family="'ArialMT'" font-size="17.2069">11</text>
<text transform="matrix(1 0 0 1 4.8535 1174.3779)" fill="#010101" font-family="'ArialMT'" font-size="17.2069">12</text>
<text transform="matrix(1 0 0 1 4.8535 1032.1348)" fill="#010101" font-family="'ArialMT'" font-size="17.2069">13</text>
<text transform="matrix(1 0 0 1 4.8535 887.5967)" fill="#010101" font-family="'ArialMT'" font-size="17.2069">14</text>
<text transform="matrix(1 0 0 1 4.8535 744.7803)" fill="#010101" font-family="'ArialMT'" font-size="17.2069">15</text>
<text transform="matrix(1 0 0 1 4.8535 601.7803)" fill="#010101" font-family="'ArialMT'" font-size="17.2069">16</text>
<text transform="matrix(1 0 0 1 4.8535 457.7803)" fill="#010101" font-family="'ArialMT'" font-size="17.2069">17</text>
<text transform="matrix(1 0 0 1 4.8535 313.7803)" fill="#010101" font-family="'ArialMT'" font-size="17.2069">18</text>
<text transform="matrix(1 0 0 1 4.8535 170.7803)" fill="#010101" font-family="'ArialMT'" font-size="17.2069">19</text>
<text transform="matrix(1 0 0 1 4.8535 25.7803)" fill="#010101" font-family="'ArialMT'" font-size="17.2069">20</text>
</svg>
