<?xml version="1.0" encoding="utf-8"?>
<!-- Generator: Adobe Illustrator 16.0.0, SVG Export Plug-In . SVG Version: 6.00 Build 0)  -->
<!DOCTYPE svg PUBLIC "-//W3C//DTD SVG 1.1//EN" "http://www.w3.org/Graphics/SVG/1.1/DTD/svg11.dtd">
<svg version="1.1" xmlns="http://www.w3.org/2000/svg" xmlns:xlink="http://www.w3.org/1999/xlink" x="0px" y="0px"
	 width="792.08px" height="731.7px" viewBox="0 0 792.08 731.7" enable-background="new 0 0 792.08 731.7" xml:space="preserve">
<g id="Layer_7">
</g>
<g id="Layer_8">
	<rect x="322.76" y="125.98" width="282.19" height="557.19"/>
</g>
<g id="Layer_1">
	<g>
		<g>
			<g>
				<linearGradient id="SVGID_1_" gradientUnits="userSpaceOnUse" x1="353.3071" y1="373.0698" x2="23.8685" y2="534.3924">
					<stop  offset="0.0314" style="stop-color:#0E0D0B"/>
					<stop  offset="0.4863" style="stop-color:#787C76"/>
					<stop  offset="0.7922" style="stop-color:#3C3D35"/>
					<stop  offset="0.9725" style="stop-color:#2E2E26"/>
				</linearGradient>
				<polygon fill-rule="evenodd" clip-rule="evenodd" fill="url(#SVGID_1_)" points="183.1,114.68 183.1,879.18 159.67,879.21 
					159.67,103.64 159.67,45.13 179.4,103.64 				"/>
				<linearGradient id="SVGID_2_" gradientUnits="userSpaceOnUse" x1="185.0293" y1="101.4136" x2="307.1185" y2="44.2844">
					<stop  offset="0" style="stop-color:#7F878A"/>
					<stop  offset="0.2392" style="stop-color:#7F8789"/>
					<stop  offset="0.3373" style="stop-color:#32312D"/>
					<stop  offset="0.5098" style="stop-color:#9097A0"/>
					<stop  offset="0.6157" style="stop-color:#A3ACB8"/>
					<stop  offset="0.7765" style="stop-color:#586168"/>
					<stop  offset="1" style="stop-color:#51536C"/>
				</linearGradient>
				<polygon fill-rule="evenodd" clip-rule="evenodd" fill="url(#SVGID_2_)" points="302.31,114.68 183.1,114.68 179.4,103.64 
					159.67,45.13 249.35,45.13 336.53,45.13 				"/>
				<linearGradient id="SVGID_3_" gradientUnits="userSpaceOnUse" x1="335.2856" y1="45.0903" x2="305.8439" y2="879.2999">
					<stop  offset="0" style="stop-color:#9DAAD0"/>
					<stop  offset="0.3176" style="stop-color:#848482"/>
					<stop  offset="1" style="stop-color:#959595"/>
				</linearGradient>
				<polyline fill-rule="evenodd" clip-rule="evenodd" fill="url(#SVGID_3_)" points="336.36,879.14 302.31,879.18 302.31,114.68 
					336.53,45.13 336.53,114.68 				"/>
				<linearGradient id="SVGID_4_" gradientUnits="userSpaceOnUse" x1="143.2861" y1="126.8589" x2="327.708" y2="813.3138">
					<stop  offset="0" style="stop-color:#FFFFFF"/>
					<stop  offset="0.1569" style="stop-color:#9FADD4"/>
					<stop  offset="0.5804" style="stop-color:#737478"/>
					<stop  offset="0.7765" style="stop-color:#848482"/>
					<stop  offset="1" style="stop-color:#959595"/>
				</linearGradient>
				<rect x="183.1" y="114.68" fill-rule="evenodd" clip-rule="evenodd" fill="url(#SVGID_4_)" width="119.21" height="764.5"/>
			</g>
		</g>
		<g>
			<polyline fill-rule="evenodd" clip-rule="evenodd" fill="none" points="302.86,114.68 302.86,180.93 302.86,235.01 
				302.86,254.89 302.86,612.5 302.86,879.18 			"/>
			<g>
				<linearGradient id="SVGID_5_" gradientUnits="userSpaceOnUse" x1="262.5532" y1="80.0923" x2="418.1884" y2="80.0923">
					<stop  offset="0.0235" style="stop-color:#A2AAB3"/>
					<stop  offset="0.1451" style="stop-color:#F7FFFF"/>
					<stop  offset="0.2275" style="stop-color:#FEFEFF"/>
					<stop  offset="0.3922" style="stop-color:#ACB0BD"/>
					<stop  offset="0.4627" style="stop-color:#C6C9D2"/>
					<stop  offset="0.5882" style="stop-color:#5D657C"/>
					<stop  offset="0.7882" style="stop-color:#5B6377"/>
					<stop  offset="0.9765" style="stop-color:#464646"/>
				</linearGradient>
				<path fill-rule="evenodd" clip-rule="evenodd" fill="url(#SVGID_5_)" d="M331.11,49.67c1.76-2.66-0.68-4.08-7.31-4.27h14.37
					l-21.13,42.93l-13.11,26.47l-121.97-0.69l119.65-3.99L331.11,49.67z"/>
			</g>
		</g>
		<g>
			<linearGradient id="SVGID_6_" gradientUnits="userSpaceOnUse" x1="236.355" y1="128.9482" x2="250.699" y2="915.5522">
				<stop  offset="0" style="stop-color:#FFFFFF"/>
				<stop  offset="0.1569" style="stop-color:#9FADD4"/>
				<stop  offset="0.5804" style="stop-color:#737478"/>
				<stop  offset="0.7765" style="stop-color:#848482"/>
				<stop  offset="1" style="stop-color:#959595"/>
			</linearGradient>
			<rect x="217.74" y="122.42" fill-rule="evenodd" clip-rule="evenodd" fill="url(#SVGID_6_)" width="50.76" height="755.49"/>
		</g>
	</g>
</g>
<g id="Layer_2">
	<g>
		<g>
			<g>
				<linearGradient id="SVGID_7_" gradientUnits="userSpaceOnUse" x1="454.8257" y1="373.4478" x2="492.0254" y2="364.9928">
					<stop  offset="0" style="stop-color:#7F878A"/>
					<stop  offset="1" style="stop-color:#7D8286"/>
				</linearGradient>
				<path fill-rule="evenodd" clip-rule="evenodd" fill="url(#SVGID_7_)" d="M430.7,383.54V243.86l132.31,5.9v20.64
					c0,31.13,0,52.57,0,64.33c0,1.14,0,2.28,0,3.42v10.5h-0.41v132.55c-53.26,23-91.17,11.2-113.74-35.38
					C440.96,429.26,434.91,408.5,430.7,383.54z"/>
				<linearGradient id="SVGID_8_" gradientUnits="userSpaceOnUse" x1="454.8257" y1="373.4478" x2="492.0254" y2="364.9928">
					<stop  offset="0" style="stop-color:#7F878A"/>
					<stop  offset="1" style="stop-color:#7D8286"/>
				</linearGradient>
				<path fill-rule="evenodd" clip-rule="evenodd" fill="url(#SVGID_8_)" d="M430.7,383.54V243.86l132.31,5.9v20.64
					c0,31.13,0,52.57,0,64.33c0,1.14,0,2.28,0,3.42v10.5h-0.41v132.55c-53.26,23-91.17,11.2-113.74-35.38
					C440.96,429.26,434.91,408.5,430.7,383.54z"/>
				
					<radialGradient id="SVGID_9_" cx="354.562" cy="332.1626" r="158.3372" fx="357.6667" fy="332.1626" gradientTransform="matrix(-8.169256e-008 1.8689 -1.878 -8.209121e-008 1086.6483 -218.9053)" gradientUnits="userSpaceOnUse">
					<stop  offset="0" style="stop-color:#7D8286"/>
					<stop  offset="0.1961" style="stop-color:#7D8286"/>
					<stop  offset="0.6314" style="stop-color:#6D7381"/>
					<stop  offset="1" style="stop-color:#343B45"/>
				</radialGradient>
				<path fill-rule="evenodd" clip-rule="evenodd" fill="url(#SVGID_9_)" d="M562.6,622.1l-131.9-4.6V383.54
					c4.21,24.96,10.26,45.72,18.16,62.26c22.56,46.58,60.48,58.37,113.74,35.38V622.1z"/>
				
					<radialGradient id="SVGID_10_" cx="354.562" cy="332.1626" r="158.3372" fx="357.6667" fy="332.1626" gradientTransform="matrix(-8.169256e-008 1.8689 -1.878 -8.209121e-008 1086.6483 -218.9053)" gradientUnits="userSpaceOnUse">
					<stop  offset="0" style="stop-color:#7D8286"/>
					<stop  offset="0.1961" style="stop-color:#7D8286"/>
					<stop  offset="0.6314" style="stop-color:#6D7381"/>
					<stop  offset="1" style="stop-color:#343B45"/>
				</radialGradient>
				<path fill-rule="evenodd" clip-rule="evenodd" fill="url(#SVGID_10_)" d="M562.6,622.1l-131.9-4.6V383.54
					c4.21,24.96,10.26,45.72,18.16,62.26c22.56,46.58,60.48,58.37,113.74,35.38V622.1z"/>
				<linearGradient id="SVGID_11_" gradientUnits="userSpaceOnUse" x1="404.9224" y1="425.4009" x2="335.3872" y2="432.0514">
					<stop  offset="0" style="stop-color:#6B6C70"/>
					<stop  offset="1" style="stop-color:#8B8F98"/>
				</linearGradient>
				<polygon fill-rule="evenodd" clip-rule="evenodd" fill="url(#SVGID_11_)" points="430.7,243.86 430.7,383.54 430.7,617.5 
					269.21,622.1 268.73,622.1 268.73,243.86 				"/>
				<linearGradient id="SVGID_12_" gradientUnits="userSpaceOnUse" x1="404.9224" y1="425.4009" x2="335.3872" y2="432.0514">
					<stop  offset="0" style="stop-color:#6B6C70"/>
					<stop  offset="1" style="stop-color:#8B8F98"/>
				</linearGradient>
				<polygon fill-rule="evenodd" clip-rule="evenodd" fill="url(#SVGID_12_)" points="430.7,243.86 430.7,383.54 430.7,617.5 
					269.21,622.1 268.73,622.1 268.73,243.86 				"/>
				<linearGradient id="SVGID_13_" gradientUnits="userSpaceOnUse" x1="542.3628" y1="619.8013" x2="257.3698" y2="619.8013">
					<stop  offset="0" style="stop-color:#535760"/>
					<stop  offset="0.5725" style="stop-color:#D2D7DD"/>
					<stop  offset="0.9725" style="stop-color:#9498A1"/>
				</linearGradient>
				<polygon fill-rule="evenodd" clip-rule="evenodd" fill="url(#SVGID_13_)" points="269.21,622.1 430.7,617.5 562.6,622.1 				"/>
				<linearGradient id="SVGID_14_" gradientUnits="userSpaceOnUse" x1="542.3628" y1="619.8013" x2="257.3698" y2="619.8013">
					<stop  offset="0" style="stop-color:#535760"/>
					<stop  offset="0.5725" style="stop-color:#D2D7DD"/>
					<stop  offset="0.9725" style="stop-color:#9498A1"/>
				</linearGradient>
				<polygon fill-rule="evenodd" clip-rule="evenodd" fill="url(#SVGID_14_)" points="269.21,622.1 430.7,617.5 562.6,622.1 				"/>
				
					<line fill-rule="evenodd" clip-rule="evenodd" fill="none" stroke="#929290" stroke-linecap="round" stroke-linejoin="round" stroke-miterlimit="3" x1="269.21" y1="622.1" x2="430.7" y2="617.5"/>
				
					<line fill-rule="evenodd" clip-rule="evenodd" fill="none" stroke="#929290" stroke-linecap="round" stroke-linejoin="round" stroke-miterlimit="3" x1="269.21" y1="622.1" x2="430.7" y2="617.5"/>
			</g>
		</g>
		<g>
			<line fill-rule="evenodd" clip-rule="evenodd" fill="none" x1="430.7" y1="614.97" x2="430.7" y2="266.62"/>
		</g>
		<g>
			<g>
				<path fill-rule="evenodd" clip-rule="evenodd" d="M475.83,308.1c4.51-4.23,9.58-6.35,15.23-6.35c5.92,0,10.88,2.12,14.88,6.35
					c4.23,4.7,6.35,10.35,6.35,16.93c0,6.31-2.12,11.58-6.35,15.81c-4,4.7-8.96,7.06-14.88,7.06c-5.64,0-10.72-2.35-15.23-7.06
					c-4-4.23-6-9.62-6-16.17C469.83,318.33,471.83,312.8,475.83,308.1z"/>
			</g>
			<g>
				
					<radialGradient id="SVGID_15_" cx="543.7983" cy="205.4937" r="13.0062" gradientTransform="matrix(1.8635 0 0 2.024 -518.4547 -92.6573)" gradientUnits="userSpaceOnUse">
					<stop  offset="0" style="stop-color:#8F929B"/>
					<stop  offset="0.6196" style="stop-color:#686779"/>
					<stop  offset="0.8" style="stop-color:#3D3B44"/>
					<stop  offset="0.9922" style="stop-color:#2F291B"/>
				</radialGradient>
				<path fill-rule="evenodd" clip-rule="evenodd" fill="url(#SVGID_15_)" d="M476.88,309.15c4.27-4,9-6,14.17-6
					c5.68,0,10.41,2,14.17,6c3.76,4.47,5.64,9.76,5.64,15.87c0,6.08-1.88,11.11-5.64,15.11c-3.76,4.23-8.49,6.35-14.17,6.35
					c-5.17,0-9.9-2.12-14.17-6.35c-4-4-6-9.15-6-15.46C470.89,318.8,472.89,313.62,476.88,309.15z"/>
			</g>
			<g>
				
					<radialGradient id="SVGID_16_" cx="540.5796" cy="207.9526" r="9.3559" gradientTransform="matrix(1.8635 0 0 2.0238 -518.4547 -93.0093)" gradientUnits="userSpaceOnUse">
					<stop  offset="0" style="stop-color:#AAABA6;stop-opacity:0"/>
					<stop  offset="0.7255" style="stop-color:#AAABA6;stop-opacity:0"/>
					<stop  offset="1" style="stop-color:#AAABA6"/>
				</radialGradient>
				<path fill-rule="evenodd" clip-rule="evenodd" fill="url(#SVGID_16_)" d="M475.12,335.55c-0.47-1.18,3.08-0.24,10.64,2.82
					c7.56,3.06,14.4,2.71,20.52-1.06c-0.71,0.94-1.41,1.76-2.12,2.47c-3.29,4-7.43,6-12.4,6c-4.94,0-9.29-2-13.05-6
					C476.79,337.67,475.59,336.26,475.12,335.55z"/>
			</g>
			<g>
				
					<radialGradient id="SVGID_17_" cx="540.9585" cy="206.2515" r="9.9701" fx="543.1871" fy="206.2515" gradientTransform="matrix(1.8635 0 0 2.0581 -518.4547 -99.8203)" gradientUnits="userSpaceOnUse">
					<stop  offset="0" style="stop-color:#010101;stop-opacity:0"/>
					<stop  offset="0" style="stop-color:#040403;stop-opacity:0"/>
					<stop  offset="0.4078" style="stop-color:#13110B;stop-opacity:0"/>
					<stop  offset="0.5961" style="stop-color:#2F291B;stop-opacity:0.298"/>
					<stop  offset="1" style="stop-color:#261A1A"/>
				</radialGradient>
				<path fill-rule="evenodd" clip-rule="evenodd" fill="url(#SVGID_17_)" d="M476.53,310.56c1.69-1.88,3.35-3.17,5-3.88
					c4.23,0.47,7.76,3.17,10.58,8.11l-4.23,15.82c-0.71,1.88-1.88,3.64-3.53,5.29c-1.88,2.12-3.76,3.65-5.65,4.59
					c-0.71-0.71-1.43-1.29-2.17-1.76c-3.53-4-5.29-8.68-5.29-14.05C471.24,319.03,473.01,314.33,476.53,310.56z"/>
			</g>
			<g>
				<path fill-rule="evenodd" clip-rule="evenodd" fill="#999AA4" d="M489.64,341.2c5.45-9.37,7.58-20.52,6.41-33.45l-0.35-1.76
					l3.88,1.41h0.35c1.41,13.88-0.96,26.32-7.11,37.33l-4.23-1.41L489.64,341.2z"/>
			</g>
			<g>
				<path fill-rule="evenodd" clip-rule="evenodd" d="M487.88,341.2c5.68-9.37,7.92-20.52,6.7-33.45l-0.35-1.76l3.94,1.41h0.35
					c1.18,13.88-1.31,26.32-7.47,37.33l-3.88-1.41L487.88,341.2z"/>
			</g>
			<g>
				
					<radialGradient id="SVGID_18_" cx="542.5532" cy="-397.4629" r="4.4419" gradientTransform="matrix(0.8768 1.6445 -1.532 0.8933 -594.6096 -225.8627)" gradientUnits="userSpaceOnUse">
					<stop  offset="0" style="stop-color:#FFFFFF"/>
					<stop  offset="0.4078" style="stop-color:#FEFEFE;stop-opacity:0.1529"/>
					<stop  offset="0.8" style="stop-color:#FEFEFE;stop-opacity:0"/>
					<stop  offset="1" style="stop-color:#FAFAFA;stop-opacity:0"/>
				</radialGradient>
				<path fill-rule="evenodd" clip-rule="evenodd" fill="url(#SVGID_18_)" d="M491.05,303.86c1.88,0.7,3.43,2,4.64,3.88
					c1.18,1.88,1.41,3.88,0.71,6c-0.47,2.35-1.55,4-3.23,4.94c-1.88,0.94-3.65,1.06-5.29,0.35c-2.35-0.47-4-1.65-4.94-3.53
					c-1.18-2.12-1.41-4.23-0.71-6.35c0.47-2.12,1.53-3.65,3.17-4.59C487.29,303.39,489.17,303.16,491.05,303.86z"/>
			</g>
			<g>
				<path fill-rule="evenodd" clip-rule="evenodd" fill="#FFFFFF" d="M487.88,334.14c-0.71,0-1.41-0.35-2.12-1.06
					c-0.47-0.47-0.71-1.18-0.71-2.12c0-1.18,0.23-2.1,0.71-2.76c0.71-0.71,1.41-1.06,2.12-1.06c0.94,0,1.76,0.35,2.47,1.06
					c0.71,0.67,1.06,1.59,1.06,2.76c0,0.94-0.35,1.64-1.06,2.12C489.64,333.79,488.82,334.14,487.88,334.14z"/>
			</g>
		</g>
		<g>
			<g>
				<path fill-rule="evenodd" clip-rule="evenodd" d="M495.29,515.37c5.68,1.88,9.82,5.64,12.41,11.29
					c2.82,6.08,3.41,12.41,1.76,18.99c-1.65,6.11-5.17,10.7-10.58,13.76c-4.74,3.53-9.94,4.35-15.58,2.47
					c-5.68-1.65-9.94-5.53-12.76-11.64c-2.82-5.64-3.41-11.64-1.76-17.99c1.64-6.31,5.19-11.23,10.64-14.76
					C484.35,514.43,489.64,513.73,495.29,515.37z"/>
			</g>
			<g>
				
					<radialGradient id="SVGID_19_" cx="631.562" cy="151.9399" r="13.1322" gradientTransform="matrix(1.7786 0.5563 -0.5261 2.0047 -550.1896 -117.3179)" gradientUnits="userSpaceOnUse">
					<stop  offset="0" style="stop-color:#8F929B"/>
					<stop  offset="0.6196" style="stop-color:#686779"/>
					<stop  offset="0.8" style="stop-color:#3D3B44"/>
					<stop  offset="0.9922" style="stop-color:#2F291B"/>
				</radialGradient>
				<path fill-rule="evenodd" clip-rule="evenodd" fill="url(#SVGID_19_)" d="M494.93,517.14c5.21,1.64,9.23,5.05,12.05,10.23
					c2.58,5.61,3.06,11.46,1.41,17.58c-1.65,6.12-4.82,10.58-9.52,13.4c-4.98,3.06-10.05,3.76-15.23,2.12
					c-5.21-1.41-9.23-4.94-12.05-10.58c-2.82-5.17-3.41-10.93-1.77-17.29c1.65-5.84,4.96-10.41,9.94-13.7
					C484.7,516.31,489.76,515.73,494.93,517.14z"/>
			</g>
			<g>
				
					<radialGradient id="SVGID_20_" cx="627.8374" cy="152.6035" r="9.411" gradientTransform="matrix(1.7772 0.5607 -0.5263 2.0115 -549.3895 -117.9126)" gradientUnits="userSpaceOnUse">
					<stop  offset="0" style="stop-color:#AAABA6;stop-opacity:0"/>
					<stop  offset="0.7255" style="stop-color:#AAABA6;stop-opacity:0"/>
					<stop  offset="1" style="stop-color:#AAABA6"/>
				</radialGradient>
				<path fill-rule="evenodd" clip-rule="evenodd" fill="url(#SVGID_20_)" d="M497.81,558c-4.04,2.82-8.53,3.53-13.46,2.12
					c-4.7-1.65-8.37-4.94-11-9.88c-0.94-2.82-1.76-4.7-2.47-5.64c0-1.18,3.19,0.94,9.58,6.35c6.58,4.94,13.31,6.7,20.17,5.29
					C499.7,556.47,498.76,557.06,497.81,558z"/>
			</g>
			<g>
				
					<radialGradient id="SVGID_21_" cx="627.7417" cy="150.5186" r="10.0106" fx="629.9794" fy="150.5186" gradientTransform="matrix(1.7767 0.5624 -0.5301 2.0498 -547.9775 -123.3092)" gradientUnits="userSpaceOnUse">
					<stop  offset="0" style="stop-color:#010101;stop-opacity:0"/>
					<stop  offset="0" style="stop-color:#040403;stop-opacity:0"/>
					<stop  offset="0.4078" style="stop-color:#13110B;stop-opacity:0"/>
					<stop  offset="0.5961" style="stop-color:#2F291B;stop-opacity:0.298"/>
					<stop  offset="1" style="stop-color:#261A1A"/>
				</radialGradient>
				<path fill-rule="evenodd" clip-rule="evenodd" fill="url(#SVGID_21_)" d="M485.06,517.49c3.76,2.12,6.35,5.88,7.76,11.29
					l-7.76,14.76c-1.41,1.88-3.06,3.41-4.94,4.58c-2.39,1.18-4.76,2-7.11,2.47c-0.71-0.71-1.06-1.53-1.06-2.47
					c-2.82-4.94-3.53-10.11-2.12-15.52c1.65-5.61,4.84-9.82,9.58-12.64C481.29,518.78,483.18,517.96,485.06,517.49z"/>
			</g>
			<g>
				<path fill-rule="evenodd" clip-rule="evenodd" fill="#999AA4" d="M485.76,559.06l-3.88-2.82l1.41-1.41
					c8-8,13.07-18.44,15.23-31.34v-2.47l3.53,3.18h0.35C500.05,538.5,494.5,550.12,485.76,559.06z"/>
			</g>
			<g>
				<path fill-rule="evenodd" clip-rule="evenodd" d="M484.35,558.35l-3.88-2.47l1.76-1.41c7.76-8,12.6-18.56,14.52-31.69l0.35-2.12
					l3.53,3.17C498.28,537.91,492.86,549.41,484.35,558.35z"/>
			</g>
			<g>
				
					<radialGradient id="SVGID_22_" cx="549.9429" cy="-500.1055" r="4.6329" gradientTransform="matrix(0.3807 1.8243 -1.6624 0.3998 -549.3583 -278.4222)" gradientUnits="userSpaceOnUse">
					<stop  offset="0" style="stop-color:#FFFFFF"/>
					<stop  offset="0.4078" style="stop-color:#FEFEFE;stop-opacity:0.149"/>
					<stop  offset="0.8" style="stop-color:#FEFEFE;stop-opacity:0"/>
					<stop  offset="1" style="stop-color:#FAFAFA;stop-opacity:0"/>
				</radialGradient>
				<path fill-rule="evenodd" clip-rule="evenodd" fill="url(#SVGID_22_)" d="M488.94,517.14c2.12-0.71,4.12-0.47,6,0.7
					c1.69,1.18,2.65,2.94,2.88,5.29c0.71,2.35,0.47,4.47-0.71,6.35c-1.21,2.08-2.65,3.23-4.29,3.47c-1.88,0.71-3.64,0.47-5.29-0.7
					c-1.88-1.37-3.18-3.12-3.88-5.23c-0.71-2.35-0.24-4.59,1.41-6.7C485.76,518.19,487.06,517.14,488.94,517.14z"/>
			</g>
			<g>
				<path fill-rule="evenodd" clip-rule="evenodd" fill="#FFFFFF" d="M487.88,544.94c-0.23,0.94-0.71,1.65-1.41,2.12
					c-0.94,0.47-1.76,0.59-2.47,0.35c-0.94-0.24-1.65-0.82-2.12-1.76c-0.23-0.94-0.23-1.88,0-2.82c0.24-0.94,0.71-1.65,1.41-2.12
					c0.7-0.47,1.53-0.59,2.47-0.35c0.71,0.23,1.41,0.82,2.12,1.76C488.11,543.06,488.11,544,487.88,544.94z"/>
			</g>
		</g>
	</g>
</g>
<g id="Layer_3">
</g>
<g id="Layer_5">
</g>
<g id="Layer_4">
	<line fill="#FFFFFF" stroke="#000000" stroke-miterlimit="10" x1="294.31" y1="605.54" x2="269.45" y2="605.54"/>
	<line fill="#FFFFFF" stroke="#000000" stroke-miterlimit="10" x1="287.8" y1="598.5" x2="269.45" y2="598.5"/>
	<line fill="#FFFFFF" stroke="#000000" stroke-miterlimit="10" x1="287.8" y1="591.46" x2="269.45" y2="591.46"/>
	<line fill="#FFFFFF" stroke="#000000" stroke-miterlimit="10" x1="287.8" y1="584.42" x2="269.45" y2="584.42"/>
	<line fill="#FFFFFF" stroke="#000000" stroke-miterlimit="10" x1="287.8" y1="577.38" x2="269.45" y2="577.38"/>
	<line fill="#FFFFFF" stroke="#000000" stroke-miterlimit="10" x1="294.31" y1="570.34" x2="269.45" y2="570.34"/>
	<line fill="#FFFFFF" stroke="#000000" stroke-miterlimit="10" x1="287.8" y1="563.3" x2="269.45" y2="563.3"/>
	<line fill="#FFFFFF" stroke="#000000" stroke-miterlimit="10" x1="287.8" y1="556.26" x2="269.45" y2="556.26"/>
	<line fill="#FFFFFF" stroke="#000000" stroke-miterlimit="10" x1="287.8" y1="549.23" x2="269.45" y2="549.23"/>
	<line fill="#FFFFFF" stroke="#000000" stroke-miterlimit="10" x1="287.8" y1="542.19" x2="269.45" y2="542.19"/>
	<line fill="#FFFFFF" stroke="#000000" stroke-miterlimit="10" x1="294.31" y1="535.15" x2="269.45" y2="535.15"/>
	<line fill="#FFFFFF" stroke="#000000" stroke-miterlimit="10" x1="287.8" y1="528.11" x2="269.45" y2="528.11"/>
	<line fill="#FFFFFF" stroke="#000000" stroke-miterlimit="10" x1="287.8" y1="521.07" x2="269.45" y2="521.07"/>
	<line fill="#FFFFFF" stroke="#000000" stroke-miterlimit="10" x1="287.8" y1="514.03" x2="269.45" y2="514.03"/>
	<line fill="#FFFFFF" stroke="#000000" stroke-miterlimit="10" x1="287.8" y1="506.99" x2="269.45" y2="506.99"/>
	<line fill="#FFFFFF" stroke="#000000" stroke-miterlimit="10" x1="294.31" y1="499.95" x2="269.45" y2="499.95"/>
	<line fill="#FFFFFF" stroke="#000000" stroke-miterlimit="10" x1="287.8" y1="492.91" x2="269.45" y2="492.91"/>
	<line fill="#FFFFFF" stroke="#000000" stroke-miterlimit="10" x1="287.8" y1="485.87" x2="269.45" y2="485.87"/>
	<line fill="#FFFFFF" stroke="#000000" stroke-miterlimit="10" x1="287.8" y1="478.83" x2="269.45" y2="478.83"/>
	<line fill="#FFFFFF" stroke="#000000" stroke-miterlimit="10" x1="287.8" y1="471.79" x2="269.45" y2="471.79"/>
	<line fill="#FFFFFF" stroke="#000000" stroke-miterlimit="10" x1="294.31" y1="464.76" x2="269.45" y2="464.76"/>
	<line fill="#FFFFFF" stroke="#000000" stroke-miterlimit="10" x1="287.8" y1="457.71" x2="269.45" y2="457.71"/>
	<line fill="#FFFFFF" stroke="#000000" stroke-miterlimit="10" x1="287.8" y1="450.68" x2="269.45" y2="450.68"/>
	<line fill="#FFFFFF" stroke="#000000" stroke-miterlimit="10" x1="287.8" y1="443.64" x2="269.45" y2="443.64"/>
	<line fill="#FFFFFF" stroke="#000000" stroke-miterlimit="10" x1="287.8" y1="436.6" x2="269.45" y2="436.6"/>
	<line fill="#FFFFFF" stroke="#000000" stroke-miterlimit="10" x1="294.31" y1="429.56" x2="269.45" y2="429.56"/>
	<line fill="#FFFFFF" stroke="#000000" stroke-miterlimit="10" x1="287.8" y1="422.52" x2="269.45" y2="422.52"/>
	<line fill="#FFFFFF" stroke="#000000" stroke-miterlimit="10" x1="287.8" y1="415.48" x2="269.45" y2="415.48"/>
	<line fill="#FFFFFF" stroke="#000000" stroke-miterlimit="10" x1="287.8" y1="408.44" x2="269.45" y2="408.44"/>
	<line fill="#FFFFFF" stroke="#000000" stroke-miterlimit="10" x1="287.8" y1="401.4" x2="269.45" y2="401.4"/>
	<line fill="#FFFFFF" stroke="#000000" stroke-miterlimit="10" x1="294.31" y1="394.36" x2="269.45" y2="394.36"/>
	<line fill="#FFFFFF" stroke="#000000" stroke-miterlimit="10" x1="287.8" y1="387.33" x2="269.45" y2="387.33"/>
	<line fill="#FFFFFF" stroke="#000000" stroke-miterlimit="10" x1="287.8" y1="380.28" x2="269.45" y2="380.28"/>
	<line fill="#FFFFFF" stroke="#000000" stroke-miterlimit="10" x1="287.8" y1="373.25" x2="269.45" y2="373.25"/>
	<line fill="#FFFFFF" stroke="#000000" stroke-miterlimit="10" x1="287.8" y1="366.21" x2="269.45" y2="366.21"/>
	<line fill="#FFFFFF" stroke="#000000" stroke-miterlimit="10" x1="294.31" y1="359.17" x2="269.45" y2="359.17"/>
	<line fill="#FFFFFF" stroke="#000000" stroke-miterlimit="10" x1="287.8" y1="352.13" x2="269.45" y2="352.13"/>
	<line fill="#FFFFFF" stroke="#000000" stroke-miterlimit="10" x1="287.8" y1="345.09" x2="269.45" y2="345.09"/>
	<line fill="#FFFFFF" stroke="#000000" stroke-miterlimit="10" x1="287.8" y1="338.05" x2="269.45" y2="338.05"/>
	<line fill="#FFFFFF" stroke="#000000" stroke-miterlimit="10" x1="287.8" y1="331.01" x2="269.45" y2="331.01"/>
	<line fill="#FFFFFF" stroke="#000000" stroke-miterlimit="10" x1="294.31" y1="323.97" x2="269.45" y2="323.97"/>
	<line fill="#FFFFFF" stroke="#000000" stroke-miterlimit="10" x1="287.8" y1="316.93" x2="269.45" y2="316.93"/>
	<line fill="#FFFFFF" stroke="#000000" stroke-miterlimit="10" x1="287.8" y1="309.89" x2="269.45" y2="309.89"/>
	<line fill="#FFFFFF" stroke="#000000" stroke-miterlimit="10" x1="287.8" y1="302.85" x2="269.45" y2="302.85"/>
	<line fill="#FFFFFF" stroke="#000000" stroke-miterlimit="10" x1="287.8" y1="295.81" x2="269.45" y2="295.81"/>
	<line fill="#FFFFFF" stroke="#000000" stroke-miterlimit="10" x1="294.31" y1="288.77" x2="269.45" y2="288.77"/>
	<line fill="#FFFFFF" stroke="#000000" stroke-miterlimit="10" x1="287.8" y1="281.74" x2="269.45" y2="281.74"/>
	<line fill="#FFFFFF" stroke="#000000" stroke-miterlimit="10" x1="287.8" y1="274.7" x2="269.45" y2="274.7"/>
	<line fill="#FFFFFF" stroke="#000000" stroke-miterlimit="10" x1="287.8" y1="267.66" x2="269.45" y2="267.66"/>
	<line fill="#FFFFFF" stroke="#000000" stroke-miterlimit="10" x1="287.8" y1="260.62" x2="269.45" y2="260.62"/>
	<line fill="#FFFFFF" stroke="#000000" stroke-miterlimit="10" x1="294.31" y1="253.58" x2="269.45" y2="253.58"/>
	<g>
		<path fill="#231F20" d="M306.91,604.12c0,3.93-1.46,6.09-4.01,6.09c-2.26,0-3.79-2.11-3.82-5.93c0-3.87,1.67-6.01,4.01-6.01
			C305.53,598.27,306.91,600.44,306.91,604.12z M300.64,604.3c0,3,0.92,4.71,2.35,4.71c1.6,0,2.36-1.87,2.36-4.82
			c0-2.84-0.73-4.71-2.34-4.71C301.63,599.48,300.64,601.15,300.64,604.3z"/>
	</g>
	<g>
		<path fill="#231F20" d="M299.08,470.79v-0.96l1.23-1.19c2.95-2.81,4.29-4.3,4.3-6.04c0-1.17-0.57-2.26-2.29-2.26
			c-1.05,0-1.92,0.53-2.46,0.98l-0.5-1.1c0.8-0.67,1.94-1.17,3.27-1.17c2.49,0,3.54,1.71,3.54,3.36c0,2.13-1.54,3.86-3.98,6.2
			l-0.92,0.86v0.04h5.19v1.3H299.08z"/>
	</g>
	<g>
		<path fill="#231F20" d="M299.5,398.89c0.45,0.28,1.47,0.73,2.56,0.73c2.01,0,2.63-1.28,2.61-2.24c-0.02-1.62-1.48-2.31-2.98-2.31
			h-0.87v-1.17h0.87c1.13,0,2.58-0.59,2.58-1.96c0-0.92-0.59-1.74-2.03-1.74c-0.93,0-1.81,0.41-2.31,0.76l-0.41-1.14
			c0.6-0.44,1.77-0.89,3.02-0.89c2.27,0,3.3,1.35,3.3,2.75c0,1.19-0.71,2.21-2.13,2.72v0.03c1.42,0.29,2.58,1.35,2.58,2.97
			c0,1.85-1.44,3.47-4.21,3.47c-1.3,0-2.44-0.41-3.01-0.78L299.5,398.89z"/>
	</g>
	<g>
		<path fill="#231F20" d="M304.44,329.1v-3.15h-5.37v-1.03l5.15-7.37h1.69v7.18h1.62v1.22h-1.62v3.15H304.44z M304.44,324.73v-3.85
			c0-0.61,0.02-1.21,0.06-1.81h-0.06c-0.35,0.68-0.64,1.17-0.96,1.71l-2.83,3.92v0.04H304.44z"/>
	</g>
	<g>
		<path fill="#231F20" d="M306.03,248.77h-4.41l-0.45,2.97c0.27-0.04,0.52-0.07,0.94-0.07c0.89,0,1.78,0.19,2.49,0.62
			c0.91,0.52,1.65,1.51,1.65,2.97c0,2.26-1.8,3.94-4.3,3.94c-1.26,0-2.33-0.36-2.88-0.71l0.39-1.19c0.48,0.29,1.42,0.64,2.47,0.64
			c1.48,0,2.74-0.96,2.74-2.5c-0.02-1.49-1.01-2.56-3.32-2.56c-0.66,0-1.18,0.07-1.6,0.12l0.75-5.54h5.53V248.77z"/>
	</g>
	<path fill="#231F20" d="M301.42,534.57h-0.04l-2.01,1.08l-0.3-1.19l2.52-1.35h1.33v11.55h-1.51V534.57z"/>
</g>
<g id="Layer_6">
</g>
</svg>
