<?xml version="1.0" encoding="utf-8"?>
<!-- Generator: Adobe Illustrator 16.0.0, SVG Export Plug-In . SVG Version: 6.00 Build 0)  -->
<!DOCTYPE svg PUBLIC "-//W3C//DTD SVG 1.1//EN" "http://www.w3.org/Graphics/SVG/1.1/DTD/svg11.dtd">
<svg version="1.1" xmlns="http://www.w3.org/2000/svg" xmlns:xlink="http://www.w3.org/1999/xlink" x="0px" y="0px" width="79.33px"
	 height="85.67px" viewBox="0 0 79.33 85.67" enable-background="new 0 0 79.33 85.67" xml:space="preserve">
<g id="Layer_3">
	<g>
		<g>
			
				<radialGradient id="SVGID_1_" cx="148.8462" cy="-268.6177" r="32.7142" gradientTransform="matrix(0.9985 0.0541 0.1627 -1.1168 -67.1759 -262.5294)" gradientUnits="userSpaceOnUse">
				<stop  offset="0" style="stop-color:#000000;stop-opacity:0.8"/>
				<stop  offset="0.7412" style="stop-color:#000000;stop-opacity:0.4431"/>
				<stop  offset="0.9804" style="stop-color:#000000;stop-opacity:0"/>
			</radialGradient>
			<path fill="url(#SVGID_1_)" d="M70.13,15.46c3.09,4.2,5.22,8.76,6.39,13.68c1.09,4.94,1.25,10.2,0.45,15.76
				c-1.61,11.11-6.7,20.43-15.27,27.97c-7.31,6.69-15.33,10.21-24.04,10.56c-1.31,0.11-2.62,0.14-3.93,0.08
				c-10.26-0.55-18.47-5.04-24.61-13.47C3.06,61.72,0.83,52,2.45,40.89c0.22-1.42,0.49-2.8,0.82-4.14
				c2.13-9.36,6.88-17.4,14.25-24.12c8.41-7.48,17.77-10.95,28.09-10.4c1.31,0.08,2.58,0.2,3.81,0.37
				C57.91,4,64.81,8.28,70.13,15.46z"/>
		</g>
		<g>
			<path fill="#1C1F20" d="M65.59,50.6c-0.08-0.22-0.18-0.43-0.29-0.61c-0.88-1.86-2.15-3.66-3.85-5.41
				c-1.33-1.33-2.88-2.52-4.63-3.56c-2.84-1.74-6.14-2.72-9.91-2.91c-0.76-0.03-1.54-0.03-2.33,0c-0.76,0.02-1.56,0.1-2.38,0.2
				c-3.79,0.55-7.19,2.11-10.2,4.71c-0.51,0.47-1.05,0.98-1.6,1.55l-0.66,0.74c-0.79,0.96-1.46,1.94-2.01,2.95
				c-0.41,0.71-0.75,1.45-1.02,2.21c-0.22,0.47-0.39,0.96-0.49,1.47c-0.3,1.01-0.51,2.01-0.61,2.99l0.86-9.66l1.11-12.9
				c0.08-0.27,0.18-0.53,0.29-0.78c1.01-2.81,2.77-5.28,5.28-7.41c4.01-3.5,8.79-5.08,14.33-4.75c5.51,0.3,10.18,2.39,14,6.26
				c3.44,3.55,5.26,7.62,5.45,12.2v1.39l0.08,8.6l0.08,8.35c-0.08-0.88-0.23-1.74-0.45-2.62C66.38,52.62,66.02,51.6,65.59,50.6z"/>
			<path d="M65.59,50.6c-1.01,1.56-2.25,3-3.73,4.34c-4.34,3.99-9.48,5.81-15.44,5.49c-5.98-0.33-11.03-2.7-15.15-7.13
				c-1.42-1.58-2.6-3.26-3.52-5.04c0.55-1.01,1.21-1.99,2.01-2.95l0.66-0.74c0.55-0.57,1.08-1.09,1.6-1.55
				c3.01-2.6,6.4-4.16,10.2-4.71c0.82-0.11,1.61-0.18,2.38-0.2c0.79-0.03,1.57-0.03,2.33,0c3.77,0.19,7.07,1.16,9.91,2.91
				c1.74,1.04,3.29,2.23,4.63,3.56c1.7,1.75,2.97,3.55,3.85,5.41C65.41,50.17,65.51,50.38,65.59,50.6z"/>
		</g>
		<g>
			<g>
				<path fill="#FFFFFF" fill-opacity="0.0863" d="M44.79,12.39c0.47-0.19,0.92-0.31,1.35-0.37l-0.86,22.32
					c-0.3,0-0.59,0.04-0.86,0.12c-0.14,0.06-0.29,0.08-0.45,0.08L44.79,12.39z M38.69,15.95c0.49-0.52,0.97-0.92,1.43-1.19
					L39.1,37.08c-0.52,0.35-1,0.76-1.43,1.23L38.69,15.95z M32.58,24.72c0.49-1.04,1.01-2.02,1.56-2.95l-1.11,22.52
					c-0.14,0.16-0.29,0.34-0.45,0.53l-0.57,1.31c-0.16,0.22-0.31,0.52-0.45,0.9L32.58,24.72z M28.24,27.17
					c0.49-1.04,1.01-2.02,1.56-2.95l-1.11,22.52c-0.14,0.16-0.29,0.34-0.45,0.53l-0.57,1.31c-0.16,0.22-0.31,0.52-0.45,0.9
					L28.24,27.17z M49.87,11.82c0.47,0,0.92,0.07,1.35,0.2l-0.53,22.24c-0.43-0.14-0.9-0.21-1.39-0.21L49.87,11.82z M55.23,13.46
					c0.41,0.25,0.84,0.51,1.27,0.78l-0.12,22.44c-0.47-0.33-0.92-0.66-1.35-0.98L55.23,13.46z M60.27,17.39
					c0.43,0.55,0.88,1.09,1.35,1.64v22.77c-0.47-0.57-0.92-1.09-1.35-1.56V17.39z M64.56,25.9c0-0.33,0.07-0.59,0.2-0.78
					c0.08-0.16,0.19-0.27,0.33-0.33c0.25,0.6,0.52,1.19,0.82,1.76l0.37,23.67c-0.43-1.09-0.93-2.11-1.47-3.07L64.56,25.9z"/>
			</g>
			<g>
				<path fill-opacity="0.6196" d="M46.22,34.18c-0.49,0.06-0.96,0.11-1.39,0.16l0.9-22.23c0.47-0.14,0.92-0.23,1.35-0.29
					L46.22,34.18z M33.53,22.96c0.43-0.93,0.93-1.78,1.47-2.54L33.9,42.77c-0.43,0.63-0.88,1.31-1.31,2.05l-0.2,0.49L33.53,22.96z
					 M29.35,25.17c0.43-0.93,0.93-1.78,1.48-2.54l-1.11,22.36c-0.43,0.63-0.88,1.31-1.31,2.05l-0.21,0.49L29.35,25.17z M39.59,15.18
					c0.47-0.41,0.93-0.78,1.39-1.11l-1.02,22.32c-0.47,0.35-0.94,0.72-1.43,1.11L39.59,15.18z M50.6,12.02
					c0.49,0,0.96,0.06,1.39,0.16l-0.61,22.28c-0.43-0.14-0.88-0.23-1.31-0.29L50.6,12.02z M60.96,18.33
					c0.47,0.52,0.92,1.09,1.35,1.72l0.04,22.85c-0.41-0.6-0.88-1.24-1.39-1.92V18.33z M65.38,25.9c0-0.19,0.02-0.31,0.04-0.37
					c0.47,1.06,0.92,2.19,1.35,3.36l0.29,23.55c-0.43-1.29-0.88-2.47-1.35-3.56L65.38,25.9z M55.88,13.82
					c0.43,0.27,0.9,0.59,1.39,0.94l-0.16,22.32c-0.49-0.27-0.96-0.57-1.39-0.9L55.88,13.82z"/>
			</g>
		</g>
		<g>
			<path d="M62.85,24.39c1.86,2.02,3.28,4.19,4.26,6.51c1.09,2.6,1.64,5.39,1.64,8.39c0.16-1.01,0.27-2.06,0.33-3.15
				c0.11-3.55-0.55-6.82-1.97-9.83c-0.96-2.07-2.28-4.03-3.97-5.86c-4.09-4.42-9.11-6.8-15.07-7.12c-6-0.33-11.18,1.51-15.52,5.53
				c-1.88,1.7-3.37,3.59-4.46,5.69c-0.57,1.12-1.06,2.29-1.47,3.52l-0.86,6.39c0.38-2.29,1.12-4.42,2.21-6.39
				c1.09-1.99,2.52-3.77,4.3-5.32c4.32-3.99,9.48-5.82,15.48-5.49C53.69,17.59,58.73,19.97,62.85,24.39z M67.1,21.85
				c2.48,3.85,3.66,8.12,3.52,12.82c-0.08,3.5-0.88,6.66-2.38,9.5c-0.27,1.23-0.65,2.42-1.15,3.56c-0.02,0.06-0.06,0.11-0.08,0.16
				l-0.08-8.6V37.9c-0.19-4.59-2.01-8.66-5.45-12.2c-3.82-3.87-8.49-5.96-14-6.26c-5.54-0.33-10.32,1.25-14.33,4.75
				c-2.51,2.13-4.28,4.6-5.28,7.41c-0.11,0.25-0.21,0.51-0.29,0.78l-1.11,12.9c-0.43-1.29-0.74-2.6-0.9-3.93
				c-1.15-2.87-1.68-5.92-1.6-9.17c0.19-6.22,2.64-11.45,7.37-15.68c4.69-4.23,10.26-6.17,16.71-5.81
				c6.39,0.35,11.79,2.88,16.22,7.58C65.37,19.39,66.31,20.6,67.1,21.85z"/>
			<path d="M62.85,24.39c1.86,2.02,3.28,4.19,4.26,6.51c1.09,2.6,1.64,5.39,1.64,8.39c0.16-1.01,0.27-2.06,0.33-3.15
				c0.11-3.55-0.55-6.82-1.97-9.83c-0.96-2.07-2.28-4.03-3.97-5.86c-4.09-4.42-9.11-6.8-15.07-7.12c-6-0.33-11.18,1.51-15.52,5.53
				c-1.88,1.7-3.37,3.59-4.46,5.69c-0.57,1.12-1.06,2.29-1.47,3.52l-0.86,6.39c0.38-2.29,1.12-4.42,2.21-6.39
				c1.09-1.99,2.52-3.77,4.3-5.32c4.32-3.99,9.48-5.82,15.48-5.49C53.69,17.59,58.73,19.97,62.85,24.39z M67.1,21.85
				c2.48,3.85,3.66,8.12,3.52,12.82c-0.08,3.5-0.88,6.66-2.38,9.5c-0.27,1.23-0.65,2.42-1.15,3.56c-0.02,0.06-0.06,0.11-0.08,0.16
				l-0.08-8.6V37.9c-0.19-4.59-2.01-8.66-5.45-12.2c-3.82-3.87-8.49-5.96-14-6.26c-5.54-0.33-10.32,1.25-14.33,4.75
				c-2.51,2.13-4.28,4.6-5.28,7.41c-0.11,0.25-0.21,0.51-0.29,0.78l-1.11,12.9c-0.43-1.29-0.74-2.6-0.9-3.93
				c-1.15-2.87-1.68-5.92-1.6-9.17c0.19-6.22,2.64-11.45,7.37-15.68c4.69-4.23,10.26-6.17,16.71-5.81
				c6.39,0.35,11.79,2.88,16.22,7.58C65.37,19.39,66.31,20.6,67.1,21.85z"/>
			
				<linearGradient id="SVGID_2_" gradientUnits="userSpaceOnUse" x1="44.6089" y1="-310.5781" x2="87.9722" y2="-310.5781" gradientTransform="matrix(0.9986 0.0538 0.0305 -0.9998 -9.0798 -288.3477)">
				<stop  offset="0" style="stop-color:#222222"/>
				<stop  offset="0.3294" style="stop-color:#222222"/>
				<stop  offset="0.5255" style="stop-color:#4D4D4D"/>
				<stop  offset="0.6627" style="stop-color:#222222"/>
				<stop  offset="1" style="stop-color:#222222"/>
			</linearGradient>
			<path fill="url(#SVGID_2_)" d="M62.85,24.39c-4.12-4.42-9.16-6.8-15.11-7.13c-6-0.33-11.16,1.5-15.48,5.49
				c-1.78,1.56-3.21,3.33-4.3,5.32c-1.09,1.96-1.83,4.09-2.21,6.39l0.86-6.39c0.41-1.23,0.9-2.4,1.47-3.52
				c1.09-2.1,2.58-4,4.46-5.69c4.34-4.01,9.52-5.86,15.52-5.53c5.95,0.33,10.97,2.7,15.07,7.12c1.7,1.83,3.01,3.78,3.97,5.86
				c1.42,3.01,2.07,6.28,1.97,9.83c-0.06,1.09-0.16,2.15-0.33,3.15c0-3.01-0.55-5.8-1.64-8.39C66.12,28.58,64.7,26.41,62.85,24.39z"
				/>
			
				<linearGradient id="SVGID_3_" gradientUnits="userSpaceOnUse" x1="44.6089" y1="-310.5781" x2="87.9722" y2="-310.5781" gradientTransform="matrix(0.9986 0.0538 0.0305 -0.9998 -9.0798 -288.3477)">
				<stop  offset="0" style="stop-color:#222222"/>
				<stop  offset="0.3294" style="stop-color:#222222"/>
				<stop  offset="0.5255" style="stop-color:#4D4D4D"/>
				<stop  offset="0.6627" style="stop-color:#222222"/>
				<stop  offset="1" style="stop-color:#222222"/>
			</linearGradient>
			<path fill="url(#SVGID_3_)" d="M62.85,24.39c-4.12-4.42-9.16-6.8-15.11-7.13c-6-0.33-11.16,1.5-15.48,5.49
				c-1.78,1.56-3.21,3.33-4.3,5.32c-1.09,1.96-1.83,4.09-2.21,6.39l0.86-6.39c0.41-1.23,0.9-2.4,1.47-3.52
				c1.09-2.1,2.58-4,4.46-5.69c4.34-4.01,9.52-5.86,15.52-5.53c5.95,0.33,10.97,2.7,15.07,7.12c1.7,1.83,3.01,3.78,3.97,5.86
				c1.42,3.01,2.07,6.28,1.97,9.83c-0.06,1.09-0.16,2.15-0.33,3.15c0-3.01-0.55-5.8-1.64-8.39C66.12,28.58,64.7,26.41,62.85,24.39z"
				/>
		</g>
		<g>
			
				<radialGradient id="SVGID_4_" cx="66.1084" cy="-1164.4956" r="14.7734" gradientTransform="matrix(0.9985 0.054 0.0118 -0.3964 -3.7976 -454.5077)" gradientUnits="userSpaceOnUse">
				<stop  offset="0" style="stop-color:#FFFFFF"/>
				<stop  offset="0" style="stop-color:#FFFFFF;stop-opacity:0.498"/>
				<stop  offset="0.0863" style="stop-color:#FFFFFF;stop-opacity:0.498"/>
				<stop  offset="0.302" style="stop-color:#FFFFFF;stop-opacity:0.2"/>
				<stop  offset="0.4902" style="stop-color:#FFFFFF;stop-opacity:0.0863"/>
				<stop  offset="0.6784" style="stop-color:#FFFFFF;stop-opacity:0.0275"/>
				<stop  offset="1" style="stop-color:#FFFFFF;stop-opacity:0"/>
			</radialGradient>
			<path fill="url(#SVGID_4_)" d="M48.31,16.49c-3.96-0.22-7.39-1-10.28-2.33c-2.68-1.2-3.99-2.6-3.93-4.22s1.43-2.87,4.14-3.77
				c2.97-1.01,6.45-1.41,10.4-1.19s7.37,1,10.24,2.33c2.87,1.2,4.28,2.6,4.26,4.18c-0.08,1.64-1.57,2.91-4.46,3.81
				C55.72,16.31,52.26,16.71,48.31,16.49z"/>
		</g>
		<g>
			<g>
				
					<linearGradient id="SVGID_5_" gradientUnits="userSpaceOnUse" x1="429.4766" y1="893.0947" x2="466.6135" y2="893.0947" gradientTransform="matrix(-0.0309 0.9995 0.9988 0.054 -831.7672 -449.346)">
					<stop  offset="0" style="stop-color:#4E4D5E"/>
					<stop  offset="1" style="stop-color:#0C0C0E"/>
				</linearGradient>
				<path fill="url(#SVGID_5_)" d="M56.7,35.57c1.78,1.06,3.33,2.28,4.67,3.64c1.69,1.7,2.99,3.48,3.89,5.36
					c0.57,1.2,1.01,2.42,1.31,3.64c0.25,0.84,0.41,1.72,0.49,2.62c0.02,0.33,0.02,0.67,0,1.02v1.47c-0.16,5.4-2.33,9.89-6.51,13.47
					c-2.48,2.15-5.31,3.64-8.48,4.46c-1.96,0.47-4.11,0.63-6.43,0.49l-1.84-0.12c-4.86-0.57-9.11-2.72-12.73-6.43
					c-0.66-0.63-1.35-1.42-2.09-2.38c-2.48-3.28-3.67-7.18-3.56-11.71c0.02-0.16,0.04-0.3,0.04-0.41c0-0.38,0.04-0.78,0.12-1.19
					c0.06-0.98,0.23-1.99,0.53-3.03c0.11-0.52,0.29-1,0.53-1.43c0.65-1.8,1.68-3.52,3.07-5.16l0.57-0.78
					c0.55-0.57,1.08-1.08,1.6-1.52c3.05-2.62,6.47-4.18,10.24-4.67c0.79-0.11,1.57-0.19,2.33-0.25c0.84-0.06,1.64-0.07,2.38-0.04
					C50.58,32.88,53.86,33.85,56.7,35.57z"/>
				
					<path fill="none" stroke="#000000" stroke-width="0.1" stroke-linecap="round" stroke-linejoin="round" stroke-miterlimit="3" d="
					M56.7,35.57c1.78,1.06,3.33,2.28,4.67,3.64c1.69,1.7,2.99,3.48,3.89,5.36c0.57,1.2,1.01,2.42,1.31,3.64
					c0.25,0.84,0.41,1.72,0.49,2.62c0.02,0.33,0.02,0.67,0,1.02v1.47c-0.16,5.4-2.33,9.89-6.51,13.47
					c-2.48,2.15-5.31,3.64-8.48,4.46c-1.96,0.47-4.11,0.63-6.43,0.49l-1.84-0.12c-4.86-0.57-9.11-2.72-12.73-6.43
					c-0.66-0.63-1.35-1.42-2.09-2.38c-2.48-3.28-3.67-7.18-3.56-11.71c0.02-0.16,0.04-0.3,0.04-0.41c0-0.38,0.04-0.78,0.12-1.19
					c0.06-0.98,0.23-1.99,0.53-3.03c0.11-0.52,0.29-1,0.53-1.43c0.65-1.8,1.68-3.52,3.07-5.16l0.57-0.78
					c0.55-0.57,1.08-1.08,1.6-1.52c3.05-2.62,6.47-4.18,10.24-4.67c0.79-0.11,1.57-0.19,2.33-0.25c0.84-0.06,1.64-0.07,2.38-0.04
					C50.58,32.88,53.86,33.85,56.7,35.57z"/>
			</g>
			<g>
				
					<linearGradient id="SVGID_6_" gradientUnits="userSpaceOnUse" x1="531.6465" y1="619.9092" x2="569.3434" y2="619.9092" gradientTransform="matrix(0.2792 0.9602 0.966 -0.2593 -706.0903 -315.5098)">
					<stop  offset="0" style="stop-color:#000000"/>
					<stop  offset="1" style="stop-color:#303030"/>
				</linearGradient>
				<path fill="url(#SVGID_6_)" d="M59.36,41.18c-3.3-3.46-7.44-5.32-12.41-5.57c-4.94-0.3-9.2,1.12-12.78,4.26v-0.08
					c-3.52,3.09-5.35,6.92-5.49,11.51c-0.16,4.67,1.42,8.72,4.75,12.16c3.38,3.38,7.55,5.23,12.49,5.53
					c4.97,0.25,9.21-1.13,12.74-4.14c3.52-3.09,5.35-6.98,5.49-11.67c0.14-4.56-1.46-8.54-4.79-11.96V41.18z M60.06,40.52
					c3.6,3.6,5.31,7.85,5.12,12.74c-0.14,4.91-2.09,9.05-5.85,12.41v-0.08c-3.74,3.19-8.21,4.67-13.43,4.42
					c-5.24-0.3-9.64-2.24-13.19-5.81v-0.08c-3.52-3.66-5.22-7.96-5.08-12.9c0.19-4.86,2.13-8.91,5.81-12.16
					c3.79-3.28,8.3-4.77,13.51-4.46C52.2,34.83,56.56,36.81,60.06,40.52z"/>
			</g>
			<g>
				
					<radialGradient id="SVGID_7_" cx="63.6011" cy="-1182.6553" r="14.7737" gradientTransform="matrix(0.9985 0.054 0.0118 -0.3964 -4.3972 -434.3388)" gradientUnits="userSpaceOnUse">
					<stop  offset="0" style="stop-color:#FFFFFF"/>
					<stop  offset="0" style="stop-color:#FFFFFF;stop-opacity:0.498"/>
					<stop  offset="0.0863" style="stop-color:#FFFFFF;stop-opacity:0.498"/>
					<stop  offset="0.302" style="stop-color:#FFFFFF;stop-opacity:0.2"/>
					<stop  offset="0.4902" style="stop-color:#FFFFFF;stop-opacity:0.0863"/>
					<stop  offset="0.6784" style="stop-color:#FFFFFF;stop-opacity:0.0275"/>
					<stop  offset="1" style="stop-color:#FFFFFF;stop-opacity:0"/>
				</radialGradient>
				<path fill="url(#SVGID_7_)" d="M55.39,42.53c-2.97,1.01-6.45,1.41-10.4,1.19c-3.96-0.22-7.39-0.98-10.28-2.29
					c-2.62-1.2-3.91-2.64-3.85-4.3c0.06-1.56,1.43-2.78,4.14-3.68c2.97-1.01,6.45-1.41,10.4-1.19c3.93,0.19,7.35,0.94,10.28,2.25
					c2.81,1.25,4.19,2.66,4.14,4.22C59.76,40.38,58.28,41.65,55.39,42.53z"/>
			</g>
		</g>
	</g>
</g>
<g id="Layer_4">
</g>
</svg>
